<svg width="288" height="121" viewBox="0 0 288 121" fill="none" xmlns="http://www.w3.org/2000/svg">
<path d="M76.2695 41.1211C73.4258 41.1211 72.4648 40.7227 63.582 35.5273C61.1016 34.0898 58.0586 32.332 54.2969 30.1719C58.0586 28.0547 61.0625 26.2969 63.543 24.8594C72.5469 19.6641 73.5078 19.2227 76.2695 19.2227C82.3086 19.2227 87.1953 24.1406 87.2344 30.2148C87.1953 36.2461 82.2695 41.1211 76.2695 41.1211ZM105.961 30.2148C105.961 30.2148 105.961 30.1328 105.961 30.0938C105.922 13.7891 92.5977 0.5625 76.2695 0.5625C68.0234 0.5625 63.7812 3 51.2969 10.2734C45.375 13.7109 37.25 18.4258 25.5234 24.7773C23.5625 25.8594 22.3203 27.8945 22.3203 30.1719C22.3203 32.4102 23.5625 34.4883 25.5234 35.5664C37.4102 42 45.6133 46.7539 51.5781 50.2344C64.3008 57.625 68.1445 59.8242 76.3086 59.8242C92.6367 59.8242 105.961 46.5156 105.961 30.2148Z" fill="#C5203B"/>
<path d="M30.0039 39.4844C32.8477 39.4844 33.8086 39.8828 42.7305 45.0781C45.2109 46.5156 48.2539 48.2734 52.0156 50.3945C48.2539 52.5117 45.2539 54.2305 42.7734 55.707C33.7695 60.9023 32.8086 61.3398 30.0469 61.3398C24.0039 61.3398 19.1211 56.4258 19.1211 50.3516C19.0781 44.3594 24.0039 39.4844 30.0039 39.4844ZM54.9766 70.332C60.8984 66.8984 69.0234 62.1797 80.75 55.7891C82.7109 54.707 83.9531 52.6719 83.9531 50.3945C83.9531 48.1563 82.7109 46.0781 80.75 45C68.8633 38.5625 60.6992 33.8086 54.7383 30.332C42.0117 22.9414 38.1719 20.7422 30.0039 20.7422C13.6367 20.7422 0.3125 34.0508 0.3125 50.3516V50.4336C0.351562 66.7344 13.6758 79.9648 30.0039 79.9648C38.25 80.043 42.4531 77.6055 54.9766 70.332Z" fill="#797979"/>
<path d="M76.2695 81.6016C73.4258 81.6016 72.4648 81.1992 63.582 76.0078C61.1016 74.5703 58.0586 72.8125 54.2969 70.6523C58.0586 68.5352 61.0625 66.7773 63.543 65.3359C72.5469 60.1406 73.5078 59.7031 76.2695 59.7031C82.3086 59.7031 87.1953 64.6211 87.2344 70.6914C87.1953 76.7656 82.2695 81.6016 76.2695 81.6016ZM105.961 70.6914C105.961 70.6914 105.961 70.6133 105.961 70.5742C105.922 54.2695 92.5977 41.043 76.2695 41.043C68.0234 41.043 63.7812 43.4805 51.2969 50.75C45.375 54.1875 37.25 58.9063 25.5234 65.2578C23.5625 66.3359 22.3203 68.375 22.3203 70.6523C22.3203 72.8906 23.5625 74.9688 25.5234 76.0469C37.4102 82.4805 45.6133 87.2344 51.5781 90.7109C64.3008 98.1055 68.1445 100.301 76.3086 100.301C92.6367 100.344 105.961 87.0352 105.961 70.6914Z" fill="#302F2F"/>
<path d="M30.0039 80.043C32.8477 80.043 33.8086 80.4414 42.7305 85.6367C45.2109 87.0781 48.2539 88.8359 52.0156 90.9531C48.293 93.0703 45.2539 94.7891 42.7734 96.2266C33.7695 101.422 32.8086 101.863 30.0469 101.863C24.0039 101.863 19.1211 96.9453 19.1211 90.8711C19.0781 84.918 24.0039 80.043 30.0039 80.043ZM54.9766 110.891C60.8984 107.457 69.0234 102.742 80.75 96.3477C82.7109 95.2695 83.9531 93.2305 83.9531 90.9531C83.9531 88.7148 82.7109 86.6367 80.75 85.5586C68.8633 79.0859 60.6602 74.3672 54.6953 70.8906C41.9727 63.5 38.1289 61.3008 29.9648 61.3008C13.6367 61.3398 0.3125 74.6484 0.3125 90.9531V91.0312C0.351562 107.336 13.6758 120.562 30.0039 120.562C38.25 120.602 42.4531 118.164 54.9766 110.891Z" fill="#C5203B"/>
<path d="M138.84 34.96H132.12V31H150.42V34.96H143.7V52H138.84V34.96ZM162.013 52.36C159.013 52.36 156.673 51.53 154.993 49.87C153.333 48.21 152.503 45.84 152.503 42.76V31H157.363V42.58C157.363 46.34 158.923 48.22 162.043 48.22C163.563 48.22 164.723 47.77 165.523 46.87C166.323 45.95 166.723 44.52 166.723 42.58V31H171.523V42.76C171.523 45.84 170.683 48.21 169.003 49.87C167.343 51.53 165.013 52.36 162.013 52.36ZM185.416 31C187.276 31 188.886 31.31 190.246 31.93C191.626 32.55 192.686 33.43 193.426 34.57C194.166 35.71 194.536 37.06 194.536 38.62C194.536 40.16 194.166 41.51 193.426 42.67C192.686 43.81 191.626 44.69 190.246 45.31C188.886 45.91 187.276 46.21 185.416 46.21H181.186V52H176.326V31H185.416ZM185.146 42.25C186.606 42.25 187.716 41.94 188.476 41.32C189.236 40.68 189.616 39.78 189.616 38.62C189.616 37.44 189.236 36.54 188.476 35.92C187.716 35.28 186.606 34.96 185.146 34.96H181.186V42.25H185.146ZM144.54 89.36C142.4 89.36 140.46 88.9 138.72 87.98C137 87.04 135.64 85.75 134.64 84.11C133.66 82.45 133.17 80.58 133.17 78.5C133.17 76.42 133.66 74.56 134.64 72.92C135.64 71.26 137 69.97 138.72 69.05C140.46 68.11 142.41 67.64 144.57 67.64C146.39 67.64 148.03 67.96 149.49 68.6C150.97 69.24 152.21 70.16 153.21 71.36L150.09 74.24C148.67 72.6 146.91 71.78 144.81 71.78C143.51 71.78 142.35 72.07 141.33 72.65C140.31 73.21 139.51 74 138.93 75.02C138.37 76.04 138.09 77.2 138.09 78.5C138.09 79.8 138.37 80.96 138.93 81.98C139.51 83 140.31 83.8 141.33 84.38C142.35 84.94 143.51 85.22 144.81 85.22C146.91 85.22 148.67 84.39 150.09 82.73L153.21 85.61C152.21 86.83 150.97 87.76 149.49 88.4C148.01 89.04 146.36 89.36 144.54 89.36ZM166.223 89.36C164.043 89.36 162.073 88.89 160.313 87.95C158.573 87.01 157.203 85.72 156.203 84.08C155.223 82.42 154.733 80.56 154.733 78.5C154.733 76.44 155.223 74.59 156.203 72.95C157.203 71.29 158.573 69.99 160.313 69.05C162.073 68.11 164.043 67.64 166.223 67.64C168.403 67.64 170.363 68.11 172.103 69.05C173.843 69.99 175.213 71.29 176.213 72.95C177.213 74.59 177.713 76.44 177.713 78.5C177.713 80.56 177.213 82.42 176.213 84.08C175.213 85.72 173.843 87.01 172.103 87.95C170.363 88.89 168.403 89.36 166.223 89.36ZM166.223 85.22C167.463 85.22 168.583 84.94 169.583 84.38C170.583 83.8 171.363 83 171.923 81.98C172.503 80.96 172.793 79.8 172.793 78.5C172.793 77.2 172.503 76.04 171.923 75.02C171.363 74 170.583 73.21 169.583 72.65C168.583 72.07 167.463 71.78 166.223 71.78C164.983 71.78 163.863 72.07 162.863 72.65C161.863 73.21 161.073 74 160.493 75.02C159.933 76.04 159.653 77.2 159.653 78.5C159.653 79.8 159.933 80.96 160.493 81.98C161.073 83 161.863 83.8 162.863 84.38C163.863 84.94 164.983 85.22 166.223 85.22ZM200.625 68V89H196.635L186.165 76.25V89H181.365V68H185.385L195.825 80.75V68H200.625ZM224.854 68V89H220.864L210.394 76.25V89H205.594V68H209.614L220.054 80.75V68H224.854ZM246.082 85.1V89H229.822V68H245.692V71.9H234.652V76.46H244.402V80.24H234.652V85.1H246.082ZM259.94 89.36C257.8 89.36 255.86 88.9 254.12 87.98C252.4 87.04 251.04 85.75 250.04 84.11C249.06 82.45 248.57 80.58 248.57 78.5C248.57 76.42 249.06 74.56 250.04 72.92C251.04 71.26 252.4 69.97 254.12 69.05C255.86 68.11 257.81 67.64 259.97 67.64C261.79 67.64 263.43 67.96 264.89 68.6C266.37 69.24 267.61 70.16 268.61 71.36L265.49 74.24C264.07 72.6 262.31 71.78 260.21 71.78C258.91 71.78 257.75 72.07 256.73 72.65C255.71 73.21 254.91 74 254.33 75.02C253.77 76.04 253.49 77.2 253.49 78.5C253.49 79.8 253.77 80.96 254.33 81.98C254.91 83 255.71 83.8 256.73 84.38C257.75 84.94 258.91 85.22 260.21 85.22C262.31 85.22 264.07 84.39 265.49 82.73L268.61 85.61C267.61 86.83 266.37 87.76 264.89 88.4C263.41 89.04 261.76 89.36 259.94 89.36ZM276.037 71.96H269.317V68H287.617V71.96H280.897V89H276.037V71.96Z" fill="black"/>
</svg>
