<svg xmlns="http://www.w3.org/2000/svg" data-name="Layer 1" viewBox="0 0 517 516"><path d="M388.43,369a8.48,8.48,0,0,0-1.08-4.06,10.6,10.6,0,0,0-.78-1.19c-1.49-2-3-4-4.47-6a1.17,1.17,0,0,1-.08-1.59,64.53,64.53,0,0,0,6.81-15.44c2.27-7.11,2.67-11.39,2-18.85,0-.4-.1-.79-.16-1.19a143.48,143.48,0,0,0-3.19-14.78c-2-7.58-4.22-15.09-6-22.71-.71-3-1.43-6.08-2-9.14a64.33,64.33,0,0,1-.85-10.92,54.29,54.29,0,0,0-3.3-17.93,1.07,1.07,0,0,1-.44-.74h0a2.62,2.62,0,0,1-.28-.43.35.35,0,0,1,.11-.28c.11-.07.21,0,.24.17a1.29,1.29,0,0,1,.88.83h0l4.78,4.21a8.54,8.54,0,0,0,1.24.93.87.87,0,0,0,1.29-.56,4.22,4.22,0,0,0,.08-1.18,51.54,51.54,0,0,0-2.66-13.62,30.38,30.38,0,0,0-11-15,69.54,69.54,0,0,0-9.66-5.91c-2.24-1.14-4.47-2.32-6.73-3.41a61.72,61.72,0,0,1-7.42-4.23c-.11-.05-.25-.06-.33-.14s-.17-.2-.15-.28a.31.31,0,0,1,.24-.2,1.38,1.38,0,0,1,1.2.34h0a15.26,15.26,0,0,0,1.79,0,.83.83,0,0,0,.49-1.41,7.33,7.33,0,0,0-1.3-1,86.53,86.53,0,0,1-9.55-7.17,166.67,166.67,0,0,1-14.35-14.4c-2.75-3.06-5.48-6.15-8.26-9.19-1.35-1.46-2.74-2.9-4.22-4.23A35.21,35.21,0,0,0,296.47,160a38.72,38.72,0,0,0-15.24-.4,97.82,97.82,0,0,0-11.83,2.7,17.59,17.59,0,0,0-5.16,2.06,72.77,72.77,0,0,0-6.92,5,14.15,14.15,0,0,0-4.89,10.14c-.14,1.71-.32,3.42-.62,5.11-.68,3.91-1.45,7.82-2,11.76a40,40,0,0,1-2.6,9.57,17.33,17.33,0,0,0-1,5,25.71,25.71,0,0,0,1.28,9.72c.34,1.05.67,2.1,1,3.16a11.59,11.59,0,0,1,.09,6.29c-.3,1.22-.63,2.44-1,3.65a39.59,39.59,0,0,0-.29,23c.1.35.41.7.18,1.06a1.31,1.31,0,0,1-.92.45,8.41,8.41,0,0,1-6.18-1.69c-1-.71-1.86-1.5-2.84-2.18-1.51-1-2.28-.9-3.37.5a3.79,3.79,0,0,0-.2.34.88.88,0,0,1-1,.42c-1.17-.25-2.35-.43-3.51-.73a21.9,21.9,0,0,0-5.06-1,1.44,1.44,0,0,1-1.12-.72c-1.2-1.5-2.41-3-3.61-4.51,0-.94.45-.66.93-.39.46.1.94.21,1.18-.36.18-.41,0-.84-.51-1.17a5.73,5.73,0,0,0-2-.84,7.71,7.71,0,0,1-4.24-2.79c-.26-.3-.5-.63-.78-.9a1.13,1.13,0,0,0-1.86.15,10.72,10.72,0,0,0-.61,1c-.74,1.28-.74,1.4.23,2.4,1.31,1.33,2.64,2.62,4,3.94,1.55,1.55,3.08,3.11,4.63,4.67.35.35.56.65.19,1.18a5,5,0,0,0-.42,5.1c.13.3.28.6.45,1-1.74,1.47-1.38,3.7-1.9,5.69l-13.57.7a.29.29,0,0,1-.19,0s-.05-.11-.08-.22c.07-.58.53-1,.81-1.51a14.61,14.61,0,0,0,2-8.59,6.69,6.69,0,0,0-1.17-3.34,3.85,3.85,0,0,0-4.23-1.42,8.06,8.06,0,0,0-2.86,1.74c-.24.22-.44.52-.89.27v-2.95c0-.86,0-1.73,0-2.59a2.21,2.21,0,0,0-1.63-2.42,18.23,18.23,0,0,0-2.28-.71,39,39,0,0,0-10.5-.69,18.88,18.88,0,0,0-4.72.73c-1.57.5-1.9.94-2,2.56,0,.46,0,.93,0,1.39,0,4.45,0,8.9,0,13.36,0,.53,0,1.06,0,1.59a.52.52,0,0,1-.5.51,7,7,0,0,1-.79.06l-13.33.71c-3.58.19-7.17.35-10.75.52q-.6,0-1.2,0a.54.54,0,0,1-.5-.49c0-.47,0-.93,0-1.4q-.14-8.07-.26-16.14l-.66-40.85c0-.26,0-.53,0-.79,0-.81-.3-1.1-1.06-1.14-.6,0-1.2,0-1.79-.05a.43.43,0,0,1-.32-.19c-.13-.2,0-.38.14-.5a5.54,5.54,0,0,1,8,.45c.22.25.43.5.66.73s.57,0,.66-.25a.9.9,0,0,0,0-.77,3.53,3.53,0,0,0-1.08-1.4,6.77,6.77,0,0,0-9.72,1.14c-.12.16-.19.36-.32.5a.75.75,0,0,1-.73.19.47.47,0,0,1-.32-.45c0-1.26,0-2.52-.05-3.78a.78.78,0,0,1,.18-.51,26.06,26.06,0,0,1,9.43-7.22c5.65-2.42,11.47-4.17,17.7-4.17.55,0,1.25.2,1.53-.55.16-.46-.51-.82-1.54-.84h-.2c-1.72.15-3.45.23-5.16.47A50.19,50.19,0,0,0,152.76,193a5.88,5.88,0,0,0-2.06,1.14c-.15.3-.52.19-.72.4l-.48,0a2,2,0,0,1-.71.46,3.44,3.44,0,0,1-1.6,1.21h0l-2.7,2.63c-.21.2-.37.55-.83.27.18-1,.31-2.08.54-3.11a26.83,26.83,0,0,1,4.43-9.48,37.66,37.66,0,0,1,11.1-10.12,32.89,32.89,0,0,1,9-4.07c1.4-.38,2.84-.64,4.25-1a3.7,3.7,0,0,0,1.85-.64.44.44,0,0,0,.12-.54c-.06-.11-.16-.25-.25-.26a4.18,4.18,0,0,0-1.17,0c-.92.15-1.82.37-2.73.56-3.38.74-11.53,4.6-11.65,4.66a1.56,1.56,0,0,0-.4.27,56.81,56.81,0,0,0-8.83,7.24,12.47,12.47,0,0,1-2.29,2.87,55.13,55.13,0,0,0-3.73,6.67h0c.07.46-.25.81-.38,1.21a6.94,6.94,0,0,1-.74,2.42c-.14,1.18-.33,2.37-.43,3.55a44.6,44.6,0,0,0-.05,5.78,4.17,4.17,0,0,1,0,.79c0,.06-.26.16-.33.12a1.6,1.6,0,0,1-.4-.42q-2.41-3.76-4.84-7.54a4.06,4.06,0,0,1-.44-1.31,49.28,49.28,0,0,1-1.14-8.47,5.16,5.16,0,0,1,1.28-3.82,59.52,59.52,0,0,1,7.6-7.87,51.78,51.78,0,0,1,15.08-9.13,1.16,1.16,0,0,0,.51-.28,1,1,0,0,0,.21-.52.35.35,0,0,0-.37-.38,3.26,3.26,0,0,0-1.17.08c-.81.29-1.59.65-2.38,1-1.2.55-2.39,1.12-3.58,1.68q-.06,0-.12-.09c0-.06,0-.14.07-.23a37.87,37.87,0,0,1,12.18-9.31c1.29-.66,2.58-1.3,3.88-1.94.21-.28.56-.2.84-.33l.17,0,.14-.11c.25-.24.6-.19.89-.31h.18l.11-.15a.48.48,0,0,0,0-.72.42.42,0,0,0-.49-.23,17.44,17.44,0,0,0-1.91.55,49.47,49.47,0,0,0-10.78,5.88,37.85,37.85,0,0,0-8.23,8.34,9.24,9.24,0,0,1-2.09,2.05A52.4,52.4,0,0,0,136,183c-.17.22-.3.62-.83.38v-1.14q0-5.17,0-10.35a51.49,51.49,0,0,1,2.15-14.9,2.39,2.39,0,0,0,.17-.56.59.59,0,0,0-.4-.62.53.53,0,0,0-.68.24,11.13,11.13,0,0,0-.74,1.83c-.13.52-.26,1-.38,1.56a14.25,14.25,0,0,0-.46,2.9,2.05,2.05,0,0,1-.1.55,14.33,14.33,0,0,0-.64,3.62c-.45,5.45-.14,10.93-.33,16.38a.27.27,0,0,1-.08.18,1.15,1.15,0,0,1-.32.07c-.16-.35-.39-.72-.59-1.13a76.08,76.08,0,0,0-4.4-7.57,35,35,0,0,0-13-12,3.82,3.82,0,0,0-1.44-.64.59.59,0,0,0-.66.31.59.59,0,0,0,.19.72,15.8,15.8,0,0,0,1.53.91,33.11,33.11,0,0,1,11.71,10.6A103.72,103.72,0,0,1,133.38,186a4.67,4.67,0,0,1,.53,2.17,39.43,39.43,0,0,0,.57,5.94,4.21,4.21,0,0,1,.33.63c.07.23.08.58-.16.65s-.55-.16-.63-.5h0c-6.12-5.83-13.51-7.79-21.76-7.11a2.37,2.37,0,0,0-.92.33.62.62,0,0,0-.23.49c0,.16.2.41.34.43a5.17,5.17,0,0,0,1.18,0,28.78,28.78,0,0,1,7.53.31,24.24,24.24,0,0,1,11.44,5.18h0a2.26,2.26,0,0,1,1.27,1.16h0a17.19,17.19,0,0,1,3.36,3.91c1.38,2,2.69,4.11,4,6.18,0,0,0,.12-.05.19-.17.27-.46.19-.7.19l-3,0a.88.88,0,0,1-.8-.5c-.16-.28-.33-.57-.51-.85a5.88,5.88,0,0,0-5.4-2.77,13.51,13.51,0,0,0-5.55,1.43,23,23,0,0,0-5.78,4.21,41.12,41.12,0,0,0-6.23,8,6.32,6.32,0,0,0-.63,1.46.61.61,0,0,0,.35.81c.3.12.5-.09.68-.28a3.78,3.78,0,0,0,.22-.33c.38-.6.77-1.2,1.15-1.81a42.27,42.27,0,0,1,4.79-6.19,18.41,18.41,0,0,1,7.94-5.4,10.05,10.05,0,0,1,3.52-.59,4.09,4.09,0,0,1,4,2.66,2.25,2.25,0,0,1-1.33.12c-1.95,0-2.09,0-2.06,2.14,0,.93,0,1.86,0,2.79l-.36,53.24c0,.53,0,1.06,0,1.59,0,.74-.1.83-.76.88a15.62,15.62,0,0,0-2.17.17,23.37,23.37,0,0,1-8.6.59,10.07,10.07,0,0,0-6.51,1.09q-16.28,8.18-32.58,16.29l-1.25.62a.78.78,0,0,0-.51.78c.34,2.91.45,5.83.57,8.75a1.08,1.08,0,0,0,.72,1.09c.84.19.79.77.79,1.37s0,.93,0,1.4l-.09,204.79c0,.53,0,1.06,0,1.59a2.08,2.08,0,0,0,1.62,2,11,11,0,0,0,6.48.25c2.85-.84,2.94-.76,3-3.77v-.6l.48-178.07,0-12.76a10.86,10.86,0,0,1,0-1.4.35.35,0,0,1,.4-.32c.6,0,1.2,0,1.79,0l56-.63q15-.17,29.91-.32c15.42-.19,30.84-.42,46.26-.6q25.23-.3,50.45-.53l7.77-.08c.48,0,.74.19.74.69,0,1.67,0,3.33-.07,5,0,.73,0,.76-.8.88-4.27.63-8.5,1.45-12.72,2.37a72.29,72.29,0,0,0-19.5,7.3,104.38,104.38,0,0,0-12.1,8,118.11,118.11,0,0,0-15.67,14.15C218.55,353,213,359.34,207.74,366c-6.28,8-12.75,15.87-18,24.65a32.39,32.39,0,0,0-3.05,6.83,15.45,15.45,0,0,0-.9,4.91c.05,2.16.14,2.28,2.32,2.57s3.9,1.11,4.76,3.33a1.33,1.33,0,0,1-.1,1.15c-1.06,1.68-2.09,3.37-3.27,5-4.75,6.41-9.44,12.85-14.2,19.25A63.46,63.46,0,0,1,165.45,444c-3,2.53-6.15,4.86-9.27,7.23a17.35,17.35,0,0,1-4.5,2.53,37,37,0,0,1-7.69,2c-1.58.22-3.15.49-4.71.83a8.51,8.51,0,0,0-5.05,3,5.43,5.43,0,0,0-1.32,4.26,37.84,37.84,0,0,0,.84,4.08,42.85,42.85,0,0,1,1.56,7.19,9.77,9.77,0,0,0,.25,1.17,4.51,4.51,0,0,0,3.07,3.37,11.34,11.34,0,0,0,1.74.43,34.82,34.82,0,0,0,9.78.16c.81-.08,1.64-.11,2.46-.15a25.61,25.61,0,0,0,9.52-2.2c2.85-1.28,5.65-2.64,8.48-4,.27-.12.55-.4.85,0a8.64,8.64,0,0,0-.19,5.91,44.19,44.19,0,0,1,1.08,5.21,20.35,20.35,0,0,0,.7,2.87,3.45,3.45,0,0,0,2.48,2.38,10.33,10.33,0,0,0,4.21.42c1.2-.17,2.39-.38,3.59-.47,4.87-.37,9.73-.71,14.6-1a24.8,24.8,0,0,0,9.52-2.23,12.63,12.63,0,0,1,1.58-.62A33.63,33.63,0,0,1,221,484.86a11,11,0,0,0,2.3-.07c2.3-.31,4.61-.3,6.92-.43a25,25,0,0,0,3.55-.44,4.51,4.51,0,0,0,3.74-3.67c.53-2.19,1.19-4.36,1.61-6.57.89-4.71,1.27-9.52,2.33-14.21a11.77,11.77,0,0,0-.38-5.91c-.15-.49,0-1.16-.21-1.65a25.31,25.31,0,0,1-.92-4.28,12.28,12.28,0,0,1-.14-4.56,5.69,5.69,0,0,1,.93-2.82,13.57,13.57,0,0,0,4.34,2.08,24.88,24.88,0,0,1,2.71,1.17,38.34,38.34,0,0,1,6.78,4.17c3.49,2.68,6.93,5.41,10.41,8.09a28.17,28.17,0,0,0,9.58,4.74,14.12,14.12,0,0,0,6.3.47c.45-.08.92-.08,1.38-.12a4.42,4.42,0,0,1,.14,2q-.17,9.67-.35,19.34c-.15,7.84-.29,15.69-.48,23.53a3.14,3.14,0,0,0,.9,2.52,4.75,4.75,0,0,0,4.18,1.41,5.36,5.36,0,0,0,3-1.79,3.13,3.13,0,0,0,.69-2.4q.08-6.87.2-13.76c.21-11.82.46-23.65.64-35.48a11.81,11.81,0,0,1,1-4.62,85.36,85.36,0,0,1,3.82-7.88c5.94-10.68,12.25-21.14,18.75-31.49a9.23,9.23,0,0,1,.57-.82.53.53,0,0,1,.34-.09c.17,0,.2.12.21.28.05,1.27.11,2.53.19,3.79l1.41,21.88c.33,5,.67,10.08,1,15.12q.56,8.66,1.09,17.31c.31,4.91.6,9.82.91,14.72.05.73.13,1.46.2,2.19a1.21,1.21,0,0,0,.44.86.65.65,0,0,0,.72.15.7.7,0,0,0,.38-.42c.08-.52.1-1.06.13-1.59q.45-10.35.9-20.71c.46-10.09.95-20.18,1.4-30.27.35-7.64.65-15.28,1-22.91.12-2.72.25-5.45.38-8.17,0-.33,0-.66.06-1a.63.63,0,0,1,.66-.6c.33,0,.66,0,1,0,3.79,0,7.57-.29,11.35-.48,2.39-.12,4.77-.38,7.15-.61s5-.5,7.63-.76c.12,1.72.26,3.37.36,5,.33,5.51.62,11,1,16.52.46,7.63.95,15.26,1.41,22.89.35,5.77.66,11.54,1,17.31a5.79,5.79,0,0,0,.17,1.18.65.65,0,0,0,.4.36.57.57,0,0,0,.67-.29,2.21,2.21,0,0,0,.19-1.16c.17-3.72.33-7.44.51-11.16.14-3.05.31-6.1.47-9.15q.51-9.86,1-19.71c.33-6.48.63-13,.95-19.43,0-.66.08-1.32.14-2,.15-1.68,0-1.66,1.2-1.92,1-.23,2.08-.41,3.12-.64a59.82,59.82,0,0,0,9.56-2.7,11.92,11.92,0,0,0,5.14-3.28,3.23,3.23,0,0,1,1.46,2.92c.27,5.37.58,10.75.89,16.12q.78,13.53,1.59,27.07.21,3.78.45,7.56.52,8.76,1,17.51.46,8.06.91,16.12a12.85,12.85,0,0,0,.16,1.39,2.33,2.33,0,0,0,.26.74.69.69,0,0,0,.67.35.53.53,0,0,0,.5-.52c.05-.59.07-1.19.07-1.78L388.67,414C388.58,399,388.47,384,388.43,369Zm-12-112a42.59,42.59,0,0,1,.47,5.75,77.67,77.67,0,0,0,2.52,19.3c2,8.12,4.28,16.16,6.4,24.25A133.14,133.14,0,0,1,389,321a5.94,5.94,0,0,1,0,3.13c-.24.64.09,1.31.12,2-.36.45-.76.13-1.09,0a78.21,78.21,0,0,0-12.7-2.43,64.71,64.71,0,0,1-12-3,145.74,145.74,0,0,1-24-10.07,56.29,56.29,0,0,0-8.74-3.85,22.14,22.14,0,0,0-8.42-1.19,19.41,19.41,0,0,1-4.57-.17c-.77-.15-1-.52-.78-1.28a11.28,11.28,0,0,1,.88-2.22c1.57-2.7,1.78-5.66,1.66-8.67-.06-1.26-.3-2.51-.44-3.76a32.27,32.27,0,0,0-3.12-9.82c-.71-1.57-1-1.38.68-2.52a143,143,0,0,0,11.9-9,93.13,93.13,0,0,0,10.71-10.12,65.78,65.78,0,0,0,8.45-12,32.78,32.78,0,0,0,3.94-18.83,2,2,0,0,1,.06-1.35,1.19,1.19,0,0,1,1.21.84A21,21,0,0,1,354,237.48a41.09,41.09,0,0,1-2.46,9.62,1.14,1.14,0,0,0-.08.58.63.63,0,0,0,.48.57.74.74,0,0,0,.55-.1,3.06,3.06,0,0,0,.73-.92,18.5,18.5,0,0,0,.91-2.42,56.46,56.46,0,0,0,1.57-7.39,19.39,19.39,0,0,0-.47-7.91c-.15-.55-.28-1.12-.43-1.67.61-.19.88.17,1.18.37,2.43,1.63,4.78,3.38,7.28,4.89,5.49,3.33,8.91,8.21,11,14.17A46.79,46.79,0,0,1,376.44,257Zm-61.32,49a1.21,1.21,0,0,1-.63,1.33,12.49,12.49,0,0,1-1.67,1.08c-1.26.59-2.54,1.17-3.85,1.63a105.9,105.9,0,0,1-13.78,3.87,10.74,10.74,0,0,1-1.14.12,144.77,144.77,0,0,1,.36-17.09c.83,0,1.68,0,2.54,0s1.31-.36,1.3-1.35c0-2-.07-4-.17-6a1.23,1.23,0,0,1,.85-1.37,74.75,74.75,0,0,0,13.52-7.58c.38-.27.78-.5,1.34-.87a33.48,33.48,0,0,1,3.24,9.73,32.29,32.29,0,0,1,.48,7.54,11.87,11.87,0,0,1-1.06,4.23c-.31.65-.6,1.33-.87,2A4.74,4.74,0,0,0,315.12,305.94ZM345.5,211c.05-.09.22-.12.42-.22.18.09.42.17.64.3,2.57,1.52,5.28,2.78,8,4,2.34,1.1,4.62,2.32,6.85,3.64a43.39,43.39,0,0,1,8.31,6.46,31.44,31.44,0,0,1,6.9,10.84,1.65,1.65,0,0,1,.2,1.15.43.43,0,0,1-.27.24.36.36,0,0,1-.34-.08,4,4,0,0,1-.47-.86,35.67,35.67,0,0,0-3.88-7.16,22.66,22.66,0,0,0-3.09-3.63,48.38,48.38,0,0,0-12.2-8.49c-3.2-1.61-6.49-3-9.58-4.85a3.89,3.89,0,0,1-1.44-1A.39.39,0,0,1,345.5,211Zm-3.2,5.91a8.6,8.6,0,0,1,4.48,2.83,11.67,11.67,0,0,1,3,7A31.57,31.57,0,0,1,346,245.43a71.21,71.21,0,0,1-7.87,11.23,90.4,90.4,0,0,1-11.29,10.67,194.25,194.25,0,0,1-18.68,13.58,58.76,58.76,0,0,1-10.59,5.5,16.2,16.2,0,0,1-3.25.91,9.77,9.77,0,0,1-6.19-1,3.41,3.41,0,0,1-1.9-2.18,17.94,17.94,0,0,1-.67-3.71c-.27-3.51-.46-7-.88-10.52-.55-4.56-.68-9.14-1-13.71,0-.53,0-1.06,0-1.59a165.78,165.78,0,0,1,.55-17.12c.07-1.19.08-2.39.18-3.58a30.69,30.69,0,0,1,.41-3.16,2,2,0,0,1,1.51-1.65,9.28,9.28,0,0,1,4.73-.22C296,230,301,230.56,306,231.28c1.45.2,2.88.48,4.33.67a1.24,1.24,0,0,1,1.15,1.14,13,13,0,0,1-.1,6.69,44.65,44.65,0,0,0-1.7,8.38,43,43,0,0,0,.19,12.71,17.33,17.33,0,0,0,1.17,3.79,2.36,2.36,0,0,0,1,1.23.72.72,0,0,0,.75,0,.6.6,0,0,0,.28-.69,6.49,6.49,0,0,0-.36-.92,17.92,17.92,0,0,1-1.57-6.34,51.1,51.1,0,0,1,.93-14.07,4.71,4.71,0,0,1,1.17-2.45,24.21,24.21,0,0,0,1.83-2.6,43.29,43.29,0,0,1,4.18-4.8c3.46-3.59,6.9-7.2,10.36-10.78,1.11-1.14,2.25-2.26,3.42-3.34a14,14,0,0,1,3.46-2.32A8.94,8.94,0,0,1,342.3,216.92Zm-19.73-1c.17-.29.31-.59.49-.87.37-.61.58-.7,1.32-.53a6.05,6.05,0,0,1,.94.3,26.42,26.42,0,0,0,7.69,2.44c.11.53-.25.66-.47.85a59.48,59.48,0,0,0-5.25,5.16c-3.17,3.39-6.38,6.75-9.69,10-1.12,1.12-2.05,2.43-3.07,3.65l-1,1.2a20,20,0,0,0-.42-5.25,4.23,4.23,0,0,0-.39-1.32c-.69-1-.34-1.65.3-2.44,1.86-2.34,3.66-4.71,5.48-7.08A56.6,56.6,0,0,0,322.57,215.88Zm-.62-9.35c.45-.25.73.12,1,.32a35,35,0,0,0,8.45,3.82c.37.12.77.19,1.13.34a.61.61,0,0,1,.25.47c0,.21-.22.28-.42.31l-.28,0a10.24,10.24,0,0,1-1.28-.25A36.83,36.83,0,0,1,323,208l-.5-.33C321.9,207.22,321.66,206.7,322,206.53Zm-.8,8.42a47.61,47.61,0,0,1-3.76,5.6c-1.79,2.3-3.48,4.67-5.22,7-.27.37-.55.74-.85,1.09-.05.06-.23,0-.35,0a.22.22,0,0,1-.14-.11.31.31,0,0,1,0-.19,99.87,99.87,0,0,1-.43-12.71,12.2,12.2,0,0,1,2.59-6.83,55.59,55.59,0,0,0,8.68,4.81A2.07,2.07,0,0,1,321.15,215Zm-10.51-5.52a14.41,14.41,0,0,0-1.93,7.22,83.51,83.51,0,0,0,.6,11.51,12.81,12.81,0,0,1,.12,1.39c0,.33-.23.46-.52.43-.92-.12-1.83-.26-2.75-.39-3.54-.52-7.09-1-10.62-1.56-1.37-.22-2.72-.54-4.06-.8a3.13,3.13,0,0,1,.63-2.12,15.32,15.32,0,0,0,1.41-3.92q1.8-7.42,3.59-14.87A59.58,59.58,0,0,1,299,200c.08-.24.21-.46.38-.84,1,.85,2,1.67,3,2.43s1.92,1.41,2.9,2.09,2.1,1.4,3.14,2.1l3,2A3.09,3.09,0,0,1,310.64,209.43Zm-45-38a13,13,0,0,1,1.48-1,16.14,16.14,0,0,1,3.65-1.87l.05,0h0a.72.72,0,0,1,.76-.37l.05,0h0a.7.7,0,0,1,.75-.36l.08,0h0a.69.69,0,0,1,.74-.33l.37-.1a1.29,1.29,0,0,1,1.2-.37h.06a2,2,0,0,1,1.57-.39l.11-.1.15.06h0a2.26,2.26,0,0,1,1.73-.34,21.38,21.38,0,0,1,6.51-.67,29.46,29.46,0,0,1,9.49,2.07,78.6,78.6,0,0,1,9,4.27,38.42,38.42,0,0,1,12,10.61c1.81,2.38,3.63,4.75,5.49,7.09a46.72,46.72,0,0,0,8.55,8.6,26.36,26.36,0,0,0,6,3.53,2.33,2.33,0,0,1,.52.27c.15.12.35.28.18.49s-.32.3-.46.27a8.91,8.91,0,0,1-2.76-1.1,37.51,37.51,0,0,1-7.36-5.43,51,51,0,0,1-4.72-5.13q-2.69-3.33-5.29-6.74c-1.17-1.53-2.34-3.06-3.64-4.48a33.74,33.74,0,0,0-8-6.51,60,60,0,0,0-12.47-5.68,25,25,0,0,0-11.42-.79c-.65.11-1.32.12-2,.17a1.39,1.39,0,0,1-1.17.28l-.79.13a.76.76,0,0,1-.81.25l-.74.16a.88.88,0,0,1-.87.31l-.13.11-.17,0a.39.39,0,0,1-.48.25l-.41.14a.29.29,0,0,1-.38.22l-.46.15c-1.31.74-2.62,1.47-3.92,2.22a15.72,15.72,0,0,0-1.49,1c-.28.2-.54.44-.8.05S265.37,171.63,265.63,171.43ZM262,176.84c.14-.16.34-.11.49,0a1,1,0,0,1,.14.15c2.35,4,6,6.43,9.94,8.61a14.67,14.67,0,0,0,10.77,1.4,2.32,2.32,0,0,1,.59-.06c.19,0,.37.07.41.32a.43.43,0,0,1-.25.48,5.63,5.63,0,0,1-1.11.39,14.26,14.26,0,0,1-3.23.34,13,13,0,0,1-5-.83,27.69,27.69,0,0,1-11.3-7.84,7.84,7.84,0,0,1-1.61-2.49A.65.65,0,0,1,262,176.84Zm-3.52,6.1c0-.2.11-.42.33-.42a.86.86,0,0,1,.5.23q1.57,1.67,3.11,3.37A26.84,26.84,0,0,0,281,195c1.33.11,2.65.12,4,.11a25.82,25.82,0,0,1,11.43,2.19c.3.15.61.28.9.44.6.33.66.46.42,1.1a76.17,76.17,0,0,0-2.48,8.39c-.83,3.41-1.62,6.84-2.45,10.26-.29,1.22-.67,2.42-1,3.56a1,1,0,0,1-.83,0,3.1,3.1,0,0,0-3.22,1.06c-.31.35-.62.69-.91,1.06a10.8,10.8,0,0,1-2.89,2.41,5.24,5.24,0,0,1-5.78-.52,9.48,9.48,0,0,1-1.83-2.34,13.91,13.91,0,0,0-1.35-2,7.4,7.4,0,0,0-4.55-2.65,11,11,0,0,1-3-1,2.17,2.17,0,0,1-1.31-2.06,14.1,14.1,0,0,1,.07-1.59,16.08,16.08,0,0,1,.26-2,9.62,9.62,0,0,0-1.29-6.69c-.56-1.06-1.22-2.06-1.85-3.07a67.83,67.83,0,0,1-3.56-6.68A18.06,18.06,0,0,1,258.49,182.94Zm-27.21,93c.29-.4.71-.19,1.06-.19q21.71-.19,43.4-.35c1.11,0,1.6.34,1.8,1.37a2.56,2.56,0,0,1-2.43,3.14c-1,.07-2,.09-3,.12-6.11.18-12.21.34-18.31.53-6.5.2-13,.43-19.49.65-.86,0-1.73,0-2.74,0C232.62,278.29,232.62,278.29,231.28,275.92Zm14-2.67c0-.12,0-.29.09-.35.77-.61,1.57-1.2,2.34-1.81a.9.9,0,0,1,1.09-.07c.52.27,1.07.5,1.61.74l2.84,1.31s0,.16,0,.17a17.28,17.28,0,0,1-3.29.16c-.2,0-.4,0-.6,0v0h-3.76C245.41,273.43,245.29,273.39,245.29,273.25Zm25.3-1.83c-.35-.63-.68-1.26-1-1.89-.09-.1-.12-.2-.07-.28s.09-.13.13-.13c.91.23,1.55,0,1.68-1.25a29.89,29.89,0,0,0,4.17,4.94c-1.06.43-2.56.5-5.2.26a.3.3,0,0,1,.14-.39A1,1,0,0,0,270.59,271.42Zm6-15.66a30.78,30.78,0,0,1-7.19-10.85,18.94,18.94,0,0,1-1-4.64,1.94,1.94,0,0,1,.06-.6.79.79,0,0,1,.34-.42c.36-.14.46.15.5.41.13.92.19,1.85.38,2.75a16.92,16.92,0,0,0,1.65,4.47,30.06,30.06,0,0,0,6.87,8.93,2.09,2.09,0,0,1,.41.43c.1.16.16.37,0,.51a.55.55,0,0,1-.36.11,1.29,1.29,0,0,1-.54-.22A7.68,7.68,0,0,1,276.62,255.76ZM256.6,241a.48.48,0,0,1,.31-.19c.1,0,.29.06.32.14a5.11,5.11,0,0,1,.27,1.14,20.45,20.45,0,0,0,2.68,8.06,34.4,34.4,0,0,0,6.88,9.2,3.48,3.48,0,0,1,.59.78c.05.08-.06.24-.1.36s-.18.22-.32.14a3.34,3.34,0,0,1-.84-.5,33.47,33.47,0,0,1-2.33-2.44,37.15,37.15,0,0,1-6.27-10.33,19.32,19.32,0,0,1-1.31-6A1.19,1.19,0,0,1,256.6,241Zm-1.46,11.22a1.69,1.69,0,0,1,.1.56c.11.41.23.82.34,1.22h0c.15.49.32,1,.46,1.45a.4.4,0,0,1-.17.32c-.07,0-.24,0-.33-.1-.4-.32-.33-.8-.37-1.24a2,2,0,0,1-.39-1.25,1.09,1.09,0,0,1-.32-.89c0-.18.06-.43.26-.42A.65.65,0,0,1,255.14,252.22ZM252,204.49a43.62,43.62,0,0,0,1.42-6c.2-1.38.2-2.78.31-4.16.05-.6.13-1.19.23-1.77a.38.38,0,0,1,.39-.34.4.4,0,0,1,.39.38,5.46,5.46,0,0,1,0,1c0,.6-.09,1.19-.14,1.81a29.58,29.58,0,0,1-1.53,9,16.31,16.31,0,0,0-.2,10,43,43,0,0,1,1.3,5.41,23.74,23.74,0,0,1-.28,9.68c-.38,1.55-.69,3.11-1,4.66-.09.39-.2.77-.31,1.15a.41.41,0,0,1-.43.32c-.37,0-.42-.3-.4-.55a7.79,7.79,0,0,1,.16-1.18c.34-1.55.63-3.12,1.05-4.66a23.11,23.11,0,0,0-.21-11.62c-.25-1-.51-2.06-.82-3.07A17.16,17.16,0,0,1,252,204.49ZM233.05,261q1.17-2.19,2.39-4.36c.31-.55.57-.62,1.11-.24.81.58,1.63,1.15,2.38,1.8a9.94,9.94,0,0,0,7.95,2.35l.79-.11a.72.72,0,0,1,.79.44c.39.92.8,1.83,1.23,2.72a18,18,0,0,0,5.41,6.54,9.08,9.08,0,0,0,.81.57.72.72,0,0,0,.91-.11.81.81,0,0,0,.32-.88,12,12,0,0,0-.64-1.23,17.76,17.76,0,0,1-1.61-3.62c.45-.52.83.05,1.24.06.95,0,1.57-.46,1.52-1.39a5.32,5.32,0,0,0-.28-1.35c-.35-1.14-.76-2.26-1.12-3.4a3.23,3.23,0,0,1-.1-.76c0-.06.06-.16.11-.16s.32-.05.36,0a9.36,9.36,0,0,1,.68,1.19,39.06,39.06,0,0,0,4.45,7.29,28.18,28.18,0,0,0,5.66,5.57c.6.42,1.16.89,1.74,1.33a.43.43,0,0,1,.21.42,64.21,64.21,0,0,1-8.55.05,28.58,28.58,0,0,1-9-2.28,24.81,24.81,0,0,1-2.35-1.06,2,2,0,0,0-2.69.36,19.39,19.39,0,0,1-3.87,2.78,3.32,3.32,0,0,1-1.69.51c-2.52,0-5,.14-7.56.19-1,0-2-.06-3-.09a9.53,9.53,0,0,0-.46-1.17,2.4,2.4,0,0,1-.29-2.67c.46-.87-.07-1.81-.63-2.58a16.6,16.6,0,0,0-1.23-1.39,4.59,4.59,0,0,0,1.51-1.73c.73.25.67.88.83,1.35a2.66,2.66,0,0,0,1.23,1.5,2.32,2.32,0,0,0,3.29-.78c1.2-1.91,2.3-3.88,3.43-5.83a1,1,0,0,0,.15-.57.83.83,0,0,0-.23-.5.59.59,0,0,0-.72-.1,1.79,1.79,0,0,0-.66.73q-1.5,2.46-3,4.91c-.46.74-.77.92-1.22.77s-.79-.7-.67-1.49A10.65,10.65,0,0,1,233.05,261Zm-6.68,16a11.21,11.21,0,0,0,2.16-.94,1.07,1.07,0,0,1,1.53.37,2.38,2.38,0,0,1,.58,1.51,1.85,1.85,0,0,1-.31,1,5.12,5.12,0,0,1-2.21,1.91,1.6,1.6,0,0,1-2.1-.52,5,5,0,0,1-.7-1.18C224.7,277.78,224.85,277.54,226.37,277Zm-2.44-1.22a1.54,1.54,0,0,1-1.44-.87,6.27,6.27,0,0,1-.78-3.22v-.4c0-.95.33-1.18,1.22-.92a14.81,14.81,0,0,0,4.77,1.11.71.71,0,0,1,.64.39,3.26,3.26,0,0,1,.38,1.7,1,1,0,0,1-.4.65A7.93,7.93,0,0,1,223.93,275.81Zm5.25-19.23c1.17.22,2.34.47,3.63.73-.63,1.58-1.71,2.94-2.13,4.48-.19.09-.25.14-.31.14a.23.23,0,0,1-.16-.1c-1.48-1.8-3-3.59-4.41-5.4-.06-.08,0-.25-.06-.45C227,255.78,228,256.37,229.18,256.58Zm-6.92-.05a27.64,27.64,0,0,1,4.9,4.89,3.58,3.58,0,0,1,.68,1.63,1,1,0,0,1-1.07,1.12,1.34,1.34,0,0,1-.4-.06c-2.55-.88-4.23-2.3-4.83-5A2.68,2.68,0,0,1,222.26,256.53Zm-1.35,8.2c.21-1.58.72-1.61,1.7-.79a8.15,8.15,0,0,0,2.74,1.57c1.56.5,2.25,1.75,2.84,3.09.36.83-.17,1.39-1.46,1.25-1.49-.45-3.33-1-5.15-1.57a1.27,1.27,0,0,1-.9-1.39C220.72,266.17,220.82,265.45,220.91,264.73Zm-22.26-.38a5.36,5.36,0,0,1,2.76-5.06c1.23-.79,2-.37,2.1,1.1a7,7,0,0,1-2.46,5.8,2.13,2.13,0,0,1-1.24.57c-.73.08-1.13-.22-1.17-.95,0-.06,0-.13,0-.19Zm.71,3.67a3.38,3.38,0,0,0,3-1.23,9.18,9.18,0,0,0,2.55-5.7,4.07,4.07,0,0,0-.24-1.76,2.26,2.26,0,0,0-3.46-1.42,10.53,10.53,0,0,0-1.29.93c-.37.27-.51.78-1.16,1a3.34,3.34,0,0,1,1-3.31,8.93,8.93,0,0,1,1.94-1.69c2-1.15,3.69-.54,4.44,1.58a6.26,6.26,0,0,1,.41,2.14,13.56,13.56,0,0,1-3.42,9.31,5.44,5.44,0,0,1-2.79,1.83,4,4,0,0,1-1,.13c-.54,0-.78-.39-.77-1.14C198.64,268.14,198.84,267.94,199.36,268Zm-2.57-19.48c-3.12,1.89-12.95,1.78-17.36-.39C182.54,246.4,193.25,246.68,196.79,248.54Zm-65,14.22q.09-10.47.19-20.92H132l.21-31.48c0-.6,0-1.2,0-1.79,0-1,.11-1.12,1.17-1.11q6.87.09,13.75.22c.91,0,1,.08,1,1,.09,4.32.16,8.64.24,12.95l.69,39.64c.07,4.12.09,8.24.18,12.35a3,3,0,0,1-.8,2.16,9.51,9.51,0,0,1-6.21,3.23,14.24,14.24,0,0,1-9.67-2.31,1.69,1.69,0,0,1-.85-1.63C131.78,271,131.79,266.87,131.83,262.76ZM82.09,285.83c6.59-3.3,13.18-6.57,19.77-9.86l12.28-6.12a5.44,5.44,0,0,1,2.29-.55c4.25-.18,8.49-.4,12.74-.6.33,0,.66,0,1,0,.4.38.28.87.28,1.32,0,2.39,0,4.78,0,7.18,0,.8,0,.86.83,1.07a7.94,7.94,0,0,1,1.77.89,15.18,15.18,0,0,0,9.81,1.74,10.84,10.84,0,0,0,6.8-3.81,3.75,3.75,0,0,0,1-2.73c-.07-1.65,0-3.3,0-5a5.17,5.17,0,0,1,2.35-.37c6.3-.33,12.6-.63,18.91-.95,1.59-.08,3.18-.2,4.77-.28.86,0,.95.05,1,.85q0,1.89,0,3.78a1.33,1.33,0,0,0,.89,1.37,21.4,21.4,0,0,0,7.69,1.88,44,44,0,0,0,7.17,0,20.26,20.26,0,0,0,4.09-.79,1.5,1.5,0,0,0,1.22-1.58c0-.46,0-.92,0-1.4a1.67,1.67,0,0,1,.59-.22,5.34,5.34,0,0,0,3.52-1.14,2.11,2.11,0,0,1,1.24-.52c4.51-.17,9-.39,13.53-.6.47,0,.93-.09,1.39-.09a1.27,1.27,0,0,1,1.37,1.62,9.26,9.26,0,0,0,.25,3.95c.42,1.37,1,2.6,2.56,3.05a.64.64,0,0,1,.53.7,5.25,5.25,0,0,0,1.08,3.14,3,3,0,0,0,3.65,1.33,10.13,10.13,0,0,1,2.93-.38q13.26-.34,26.5-.69c5.84-.16,11.69-.36,17.53-.5a3.43,3.43,0,0,0,2.49-1,4.31,4.31,0,0,0,1.43-2.76c0-.59,0-1.18,0-2,1.42.5,2.6.93,3.79,1.32.43.15.68.37.68.84a7,7,0,0,0,.05.79,29.37,29.37,0,0,0,1.06,6.91,4.46,4.46,0,0,1-2,.21l-39.27.15-117.81.49L83,286.81H80.93C81.06,286.1,81.68,286,82.09,285.83ZM90.2,400.89l-.27,94.69c0,2.93,0,5.85-.07,8.77,0,1.24-.06,1.32-1.24,1.67a9.66,9.66,0,0,1-6.26,0,1.29,1.29,0,0,1-1-1.48,9.59,9.59,0,0,0,0-1.2q0-102.25.07-204.53c0-.59,0-1.19,0-1.79s.3-.7.76-.7h7.58a.64.64,0,0,1,.72.73q0,.9,0,1.8-.15,51-.32,102.06ZM81.41,295.63c-.4,0-.79,0-1.38-.06-.27-2.42-.27-4.68-.35-6.92a.48.48,0,0,1,.48-.52c.6,0,1.2,0,1.79,0q23-.08,46.05-.16l88.3-.38,66.77-.31c.47,0,.94,0,1.4,0a3.3,3.3,0,0,1,2,.58,10.88,10.88,0,0,0,8.18,1.64c.52-.1,1-.18,1.57-.26a2.58,2.58,0,0,1,.49.1c.06,2,.11,4.06.16,6.06l-.24.15c-.06,0-.12.1-.17.1Zm202.74,12.05c-4.72.08-9.44.18-14.16.24l-56.23.58-34.09.39-34.1.4q-17.44.19-34.89.4c-6.23.08-12.47.2-18.65.3a1.18,1.18,0,0,1-.26-1c0-3.59,0-7.18,0-10.77a7,7,0,0,1,0-.79.5.5,0,0,1,.5-.5c.67,0,1.33,0,2,0H284.75a.6.6,0,0,1,.64.61q0,.3,0,.6-.09,4.28-.19,8.57C285.17,307.63,285.14,307.66,284.15,307.68ZM188,404c.29-2.25.8-4.26,2.46-5.79a3.05,3.05,0,0,1,4-.48,7.51,7.51,0,0,1,1.13.81c2.08,1.75,2.08,1.76.91,4.24-.6,1.26-1.21,2.51-1.81,3.76-.14.3-.23.64-.7.79C192.71,405.13,190.57,404.24,188,404Zm-17.21,37.88a80.45,80.45,0,0,0,8.43-10.07c3.73-5.08,7.57-10.09,11.26-15.21a54.68,54.68,0,0,0,6.16-10.44c.64-1.51,1.36-3,2.1-4.61,2.6,2.11,5.32,2.11,8.19,1a30,30,0,0,1,3.63-1,11.39,11.39,0,0,1,6.45.63,4.73,4.73,0,0,1,.71.36c1.61,1,1.73,1.3,1,3a162.51,162.51,0,0,1-15.82,27.81,1.54,1.54,0,0,1-1.64.81,16.89,16.89,0,0,0-7.27.75,40.44,40.44,0,0,0-16.53,9.25c-.63.58-1.23,1.21-1.81,1.85s-1.09,1.29-1.74,2.07a37.16,37.16,0,0,0-3.66-5.54A8.26,8.26,0,0,1,170.82,441.86Zm41.1,18.72a1.3,1.3,0,0,1,.21-1.31c.68-.9,1.31-1.83,2-2.7a51.92,51.92,0,0,1,10.39-9.8,23.52,23.52,0,0,1,8.62-4,8.59,8.59,0,0,1,4.33.09.64.64,0,0,1,.51.73c-.3,2.35.4,4.61.56,6.92A7.13,7.13,0,0,1,238,454a11,11,0,0,1-4.67,5.27c-1.33.75-2.68,1.46-4,2.15-4.6,2.36-9.35,4.41-14.06,6.55-.35.16-.73.29-1.27.5A53.31,53.31,0,0,0,211.92,460.58Zm.38,8.62L206.8,472c-.37.19-.61.05-.69-.38-.11-.59-.19-1.18-.27-1.77a16,16,0,0,0-3-7.46c-.88-1.16-1.8-2.29-2.7-3.43-.44-.56-.48-.74,0-1.19a60.67,60.67,0,0,0,4.81-5.56.48.48,0,0,1,.82-.07,9.52,9.52,0,0,1,1.67,2.21,35.11,35.11,0,0,1,1.63,3.17A47.79,47.79,0,0,1,212.3,469.2Zm26.06-27.34c-3.75-.92-7.15,0-10.45,1.55a32.47,32.47,0,0,0-5.73,3.56,53.5,53.5,0,0,0-9.74,9.63l-1.36,1.73c-.81-1.49-1.48-2.77-2.2-4a19.29,19.29,0,0,0-2.51-3.24,227.17,227.17,0,0,0,16-29.83c.34-.12.49.06.64.31a11,11,0,0,0,4.93,4.19c1.14.53,2.3,1,3.46,1.5a9.31,9.31,0,0,1,4.82,4.53c.51,1,.94,2.05,1.38,3.08.31.73.57,1.49.87,2.22s.87,1.47.84,2.19A9.33,9.33,0,0,1,238.36,441.86ZM221.6,419c-1.95,4.36-3.88,8.73-6.22,12.91-1.75,3.12-3.42,6.29-5.12,9.45a71.68,71.68,0,0,1-8.42,12.55c-1.12,1.31-2.33,2.55-3.5,3.81a1.16,1.16,0,0,1-.89.51,18.11,18.11,0,0,1-.24-10.95,28.78,28.78,0,0,1,3.18-7.06c1.57-2.54,3.23-5,4.91-7.5a148.18,148.18,0,0,0,9.94-16.31c1.5-3,3-5.94,4.35-8.95a2.94,2.94,0,0,1,.82-1.39,7.16,7.16,0,0,1,.91,3.23c.22,2.85.36,5.71.54,8.56A2.27,2.27,0,0,1,221.6,419Zm-26,27.48a11.52,11.52,0,0,1-.35,1.14,4.36,4.36,0,0,1-2,2.41,32.76,32.76,0,0,1-6.93,2.95c-2.21.72-4.46,1.28-6.69,1.92-.95.27-1.88.57-2.9.88a5,5,0,0,1-.3-.76,21.18,21.18,0,0,0-1.39-4.55,1.79,1.79,0,0,1,.3-2c.73-.86,1.37-1.8,2.16-2.6a37.86,37.86,0,0,1,18.54-10.28,21.31,21.31,0,0,1,3.75-.41c1-.05,1.2.33.67,1.14a47.51,47.51,0,0,0-3,5.17A23.45,23.45,0,0,0,195.62,446.49Zm-32.69,1.76a1.57,1.57,0,0,1,.45-.39,47.94,47.94,0,0,0,5-4.2c.55-.53.83-.48,1.29.12.24.31.46.65.68,1a35.85,35.85,0,0,1,4.05,8.83c.06.19.13.38.18.57.57,2.39.51,2.47-1.6,3.82-1.78,1.15-3.52,2.37-5.28,3.56l-1.65,1.12A3.07,3.07,0,0,1,166,462a18.3,18.3,0,0,0-2.89-12.71,2.06,2.06,0,0,1-.3-.51A.86.86,0,0,1,162.93,448.25Zm-28.21,14.5a4.92,4.92,0,0,1,1.84-2.53,8,8,0,0,1,3.44-1.45c2.09-.39,4.18-.74,6.26-1.11a26.57,26.57,0,0,0,13-6.06c.59-.51,1.23-1,2-1.6a17.73,17.73,0,0,1,3,12.14,5.36,5.36,0,0,1-.15.78,4.1,4.1,0,0,1-2.45,3.09,42,42,0,0,1-5.91,2.3,23.73,23.73,0,0,1-6.71.61,48.68,48.68,0,0,1-9.08-1,13.15,13.15,0,0,1-3.75-1.25A3.1,3.1,0,0,1,134.72,462.75Zm34.75,10c-2.81,1.34-5.63,2.68-8.49,3.93a23.24,23.24,0,0,1-8.51,1.87c-1.06,0-2.12.13-3.18.22a31.14,31.14,0,0,1-8.73-.24,10.32,10.32,0,0,1-1.54-.42,2.73,2.73,0,0,1-1.81-2,5.8,5.8,0,0,1-.25-1.17,36.14,36.14,0,0,0-1.41-6.41.56.56,0,0,1,.07-.77.51.51,0,0,1,.32.05,3.74,3.74,0,0,1,.52.28,34.62,34.62,0,0,0,8.37,1.67c1.72.14,3.43.33,5.17.34a24.62,24.62,0,0,0,10.61-2.31,40.06,40.06,0,0,0,6.88-4c2-1.46,4-2.83,6.06-4.19a24.9,24.9,0,0,1,7.79-3.46,62.35,62.35,0,0,0,8.93-2.78,24.38,24.38,0,0,0,4.24-2.13c.1.2.2.31.21.43a33.1,33.1,0,0,0,1.08,6.48,1.84,1.84,0,0,1-.65,2.1,57.57,57.57,0,0,1-16.06,10.23,16.49,16.49,0,0,1-5.83,1.15A9.68,9.68,0,0,0,169.47,472.71Zm3.13,3.76a2.58,2.58,0,0,1,1.4-2.64,8,8,0,0,1,2-.78,34.26,34.26,0,0,0,9.34-3.86,56.26,56.26,0,0,0,11.41-8.28l1.65-1.52c3.46,3.68,5.86,7.75,6,12.9a1.32,1.32,0,0,1-.82,1.4,51.24,51.24,0,0,1-14.46,4.84c-3.09.51-6.19.74-9.3,1a21.76,21.76,0,0,1-4.56-.28A3,3,0,0,1,172.6,476.47ZM239.27,460c-.47,4.69-1,9.38-2,14-.4,2-1,3.85-1.43,5.79a3.24,3.24,0,0,1-2.87,2.65,16.32,16.32,0,0,1-2,.25c-3.52.18-7,.45-10.55.45a37.85,37.85,0,0,0-14.94,2.94,19.77,19.77,0,0,1-6.78,1.51c-3.32.16-6.63.51-9.95.53a37.81,37.81,0,0,0-4,.38c-1.78.19-3.56.38-5.34.62a9.45,9.45,0,0,1-3.35-.33,2.09,2.09,0,0,1-1.57-1.4,3.66,3.66,0,0,1-.21-.55c-.41-2.07-.8-4.13-1.21-6.24.67-.22,1.1.25,1.61.27a12.67,12.67,0,0,1,1.38.16,22.1,22.1,0,0,0,5.57.06c2.65-.24,5.28-.49,7.91-.92A48.25,48.25,0,0,0,202,476.35c1.74-.8,3.46-1.69,5.15-2.6,2.93-1.58,5.93-3,9-4.35,5.21-2.34,10.46-4.6,15.51-7.29,4.35-2.32,4.67-2.59,7.69-6.6C239.29,457.23,239.4,458.63,239.27,460Zm43.13-1.71a.92.92,0,0,1-.7,1,10.39,10.39,0,0,1-5.87.38A27.91,27.91,0,0,1,265,454.37c-3-2.37-6.07-4.75-9.12-7.1a38.23,38.23,0,0,0-11.84-6.41,6,6,0,0,1-3.47-3.09c-.54-1-.89-2.07-1.33-3.11s-.94-2.34-1.5-3.47a11.22,11.22,0,0,0-5.78-5.51c-.74-.31-1.48-.59-2.21-.92a21.12,21.12,0,0,1-2.14-1,7.38,7.38,0,0,1-4.1-6c-.08-.92-.16-1.85-.22-2.77-.12-1.93-.22-3.85-.36-5.77a12.81,12.81,0,0,0-1.2-4.4,8.06,8.06,0,0,0-5.81-4.69,13.8,13.8,0,0,0-7.46.24c-1.2.38-2.42.71-3.62,1.08a5,5,0,0,1-4.69-.93c-.74-.56-1.39-1.24-2.07-1.87s-1.23-1.22-1.9-1.75c-2-1.57-4.49-2.12-6.87,0-.15.05-.31.09-.4-.09s0-.17.1-.27a35.49,35.49,0,0,1,2.91-5.65,73.64,73.64,0,0,1,4.94-7.47c5.39-7.34,10.94-14.55,16.8-21.51,4.93-5.84,9.91-11.63,15.35-17A118.47,118.47,0,0,1,249,329.06,70.66,70.66,0,0,1,272,319.59c4-.88,8-1.68,12.13-2.27.67-.1.86,0,.85.69,0,2.93-.13,5.85-.18,8.77q-.33,17.94-.65,35.87-.35,19.64-.7,39.26-.32,16.53-.67,33.08-.21,11.06-.41,22.11C282.4,457.5,282.37,457.9,282.4,458.3ZM291,395.48q-.34,19.63-.69,39.26c-.2,10.9-.44,21.79-.65,32.69q-.35,18.44-.65,36.87a17.89,17.89,0,0,0,0,1.79,2.5,2.5,0,0,1-1.59,2.52,2.94,2.94,0,0,1-3,0,4.2,4.2,0,0,1-.49-.33,2.27,2.27,0,0,1-1-2c.11-2.26.11-4.52.15-6.78q.21-11,.41-21.92.34-19.33.69-38.67.31-16.63.67-33.28c0-1.13,0-2.26,0-3.39h0q.35-17.43.7-34.87c.12-6.18.2-12.36.31-18.54q.36-20.24.73-40.46c.06-3.19.15-6.38.22-9.56,0-.47,0-.93.07-1.4a.49.49,0,0,1,.54-.46h5a.5.5,0,0,1,.49.51c0,.47,0,.93,0,1.4q-.21,10.95-.44,21.91l-.48,25.31q-.3,15.26-.61,30.5C291.15,382.86,291.07,389.17,291,395.48Zm62.3-1.84c-4.14.75-8.37,1-12.57,1.53-3.64.34-7.29.13-10.93.11-.23,0-.34-.19-.48-.32,6.62-5.71,19.49-14.1,23.19-15.12C352.81,382.27,353.38,392,353.26,393.64Zm.6-15.72a19.65,19.65,0,0,0-3.11,1.3A127.16,127.16,0,0,0,331,391.93a61.22,61.22,0,0,0-7.75,7.44A100.91,100.91,0,0,0,311.32,415c-5.86,9.65-11.8,19.26-17.2,29.17-.76,1.4-1.5,2.81-2.24,4.22a.45.45,0,0,1-.46.31c-.3-.24-.12-.58-.12-.87q.4-22.64.83-45.26c.25-12.69.55-25.38.79-38.07.25-13.09.46-26.18.7-39.27.05-2.79.14-5.58.23-8.37,0-1.08.06-1.11,1.07-1.3a104.64,104.64,0,0,0,14.56-4c1.32-.45,2.58-1,3.85-1.62a5.39,5.39,0,0,0,1.7-1,3.88,3.88,0,0,1,3.94-1.09,10.33,10.33,0,0,0,2.78,0,21.8,21.8,0,0,1,9.55,1.53,59.88,59.88,0,0,1,7.06,3.21,151,151,0,0,0,28,11.38,56.12,56.12,0,0,0,9.33,2A80.26,80.26,0,0,1,388,328.4c1.69.5,1.68.48,1.49,2.3a46.89,46.89,0,0,1-1.36,7.24,78,78,0,0,1-5.4,14.32,30.2,30.2,0,0,1-3.34,5.41,79.79,79.79,0,0,1-13.24,13.75A38,38,0,0,1,353.86,377.92Zm21.51,11.2c-1.39.42-2.77.89-4.19,1.23-2.25.55-4.52,1-6.79,1.51-.57.12-1.16.15-1.71.22-.09-.19-.19-.31-.19-.42.07-2,.14-4,.24-6,0-.76.24-.87,1-.76a42.13,42.13,0,0,1,11.59,3.41c.18.08.37.15.38.37S375.55,389.06,375.37,389.12Zm6.2-5a.87.87,0,0,1-.37-.06,43.13,43.13,0,0,0-14.57-5.53c-.91-.19-1.84-.21-2.76-.34-.64-.09-.68-.24-.71-.94-.08-1.63.31-2.94,2-3.68a8.18,8.18,0,0,0,2.07-1.52,5.09,5.09,0,0,1,3.06-1.25c2.64-.23,5.26-.56,7.9-.81.84-.08,1.86-.62,2.49-.11s.42,1.73.48,2.63c.23,3.51.4,7,.58,10.52C381.75,383.37,381.92,383.79,381.57,384.1Z"/><path fill="#080707" d="M274.77,202.86a2.13,2.13,0,0,0-3.37,1,4,4,0,0,0,2.06,4.65,2.08,2.08,0,0,0,2.85-1.32,4.76,4.76,0,0,0,.14-1A4.27,4.27,0,0,0,274.77,202.86Zm-.87,2.95c-.06.31-.34.36-.54.47a1.19,1.19,0,0,1-.82-1.8.54.54,0,0,1,.49-.2A1.32,1.32,0,0,1,273.9,205.81Zm1.08.65c-.17,0-.24-.18-.21-.37s.06-.28.13-.3c.23-.06.33.08.29.31S275.16,206.46,275,206.46Z"/><path fill="#080606" d="M168.77,196.75a3.54,3.54,0,0,0-1.71-1.86,10.6,10.6,0,0,0-5.26-1.38c-.53.07-1.19.14-1.84.25a2,2,0,0,0-1.3.84.57.57,0,0,0,.09.87,6.17,6.17,0,0,0,1.21.66c2.51,1.14,5.24,1.37,7.92,1.79A.84.84,0,0,0,168.77,196.75Zm-3.07-.6-.43,0h0a2.66,2.66,0,0,1-2-.38,1.69,1.69,0,0,1-1.6-.4.78.78,0,0,1-.72-.2.76.76,0,0,1,.68-.3,8.39,8.39,0,0,1,4.37,1c.07,0,.05.21.08.32A.45.45,0,0,1,165.7,196.15Z"/><path fill="#090707" d="M167,164.65a4.73,4.73,0,0,0-1.18.12,9.45,9.45,0,0,0-4.08,1.93,17.84,17.84,0,0,0-4.67,5.85,1.38,1.38,0,0,0,.52,2l.77.05h0l.17-.08.18,0,2.4-1.22c.52-.4,1-.79,1.55-1.2a16.57,16.57,0,0,0,4.52-4.95,8.83,8.83,0,0,0,.65-1.44A.88.88,0,0,0,167,164.65ZM158.57,173c.14-1.07.62-1.9,2.15-3.53a9.68,9.68,0,0,1,5.37-3.31A15.71,15.71,0,0,1,158.57,173Z"/><path fill="#0c0a0a" d="M151.27,189.13a.73.73,0,0,0-.88-.6,2.65,2.65,0,0,0-.91.35,6.22,6.22,0,0,0-3,6.44c.88.56,1.54.14,2.15-.49.05,0,.12-.17.09-.21a.23.23,0,0,1,.32-.14s.62-.85.92-1.28a7.3,7.3,0,0,0,1.3-3.09A3.57,3.57,0,0,0,151.27,189.13ZM149.66,191a1.31,1.31,0,0,1-.44.82h0a2.32,2.32,0,0,1-.81,1.22c-.06.11-.09.25-.18.31s-.41.22-.46.17c-.21-.22-.14-.44.14-.58h0l.13-.38h0a2,2,0,0,1,.67-1.23h0a1.16,1.16,0,0,1,.84-.83h0c.13-.26.28-.29.36,0A.42.42,0,0,1,149.66,191Z"/><path fill="#010101" d="M246,104.19a48.92,48.92,0,0,0-7.07-14.85,35.53,35.53,0,0,0-5.27-6A23.26,23.26,0,0,0,223,77.86c-1.17-.25-2.37-.33-3.55-.48a1.15,1.15,0,0,1-1-.53,5.4,5.4,0,0,0-2.51-2.16c0-.51-.07-1-.08-1.44-.14-9-.3-17.94-.43-26.91q-.13-9.77-.24-19.53-.12-10.26-.22-20.53h-1.2a4.08,4.08,0,0,0-.15,2q.24,19.33.51,38.67.12,9.66.25,19.33c0,2.46.06,4.92.13,7.37a1.75,1.75,0,0,1-.81,1.86,3.26,3.26,0,0,0-1.5,2,1.82,1.82,0,0,1-1.35,1.29,32.54,32.54,0,0,0-11.76,7.64,58.89,58.89,0,0,0-11.2,15.64,85.28,85.28,0,0,0-7.8,23.74,7.94,7.94,0,0,0-.09,1.38.89.89,0,0,0,.65.9,7.25,7.25,0,0,0,.76.22,95.32,95.32,0,0,0,14.32,2.39c2.58.25,5.17.42,7.75.58a1.72,1.72,0,0,1,1.58,1,24.83,24.83,0,0,0,2.77,4.13,17.16,17.16,0,0,0,5.62,4.68,10.21,10.21,0,0,0,10.93-.79A16.13,16.13,0,0,0,228.5,136a20,20,0,0,0,2.43-4.56,2.12,2.12,0,0,1,2-1.6,53.46,53.46,0,0,0,8.72-2,20.65,20.65,0,0,0,4.56-2,8.24,8.24,0,0,0,2.26-1.91,2.37,2.37,0,0,0,.62-1.78A78.11,78.11,0,0,0,246,104.19Zm.67,19.77a18.62,18.62,0,0,1-5,2.45,65.56,65.56,0,0,1-12.23,2.66,147.8,147.8,0,0,1-18,1.13,154.67,154.67,0,0,1-21.69-1.55,62.7,62.7,0,0,1-7.41-1.49c-1-.28-1.08-.32-.86-1.37.49-2.41,1-4.81,1.61-7.18a75.56,75.56,0,0,1,5.67-15.27A61,61,0,0,1,199,88.46a35.18,35.18,0,0,1,9.12-7,22.73,22.73,0,0,1,10.09-2.69,20.06,20.06,0,0,1,10.47,2.67,27.11,27.11,0,0,1,8.13,7.24,44.8,44.8,0,0,1,5.87,10.14,71.36,71.36,0,0,1,5.06,23A2.2,2.2,0,0,1,246.67,124Z"/><path fill="#050404" d="M492,136.16h-.39c-.51,0-.69-.33-.69-.79,0-.13,0-.26,0-.4l-.3-23.52a3.91,3.91,0,0,1,.26-1.75,5.11,5.11,0,0,0,.28-2.55,10.37,10.37,0,0,0-4-7.32A28,28,0,0,0,478,94.34a15.34,15.34,0,0,1-3.74-1.85,5.5,5.5,0,0,1-2.15-2.28c.52-.28,1-.5,1.44-.79a4.58,4.58,0,0,0,1.88-5.07,4.64,4.64,0,0,0-8.72-.6,4.55,4.55,0,0,0,1.44,5.53c.45.36,1.15.39,1.36,1.11a8.34,8.34,0,0,1-2.56,3,41.24,41.24,0,0,1-7.19,3.82.36.36,0,0,1-.56-.32c0-.6,0-1.2,0-1.79q-.11-12.47-.21-24.93-.12-12.06-.26-24.12A3.26,3.26,0,0,1,459,44.1c.23-.37,0-.72-.47-.92a1.77,1.77,0,0,0-1-.12c-.73.07-1.46.12-2.19.12l-15.35,0-53.63.05h-.2c-.54,0-.81.31-.85.9,0,.19,0,.39,0,.59q-.18,6.18-.38,12.36a1.61,1.61,0,0,1-.21,1l-2.54.37c-.51-.27-.68.3-1,.42-1.21.18-2.1,1.36-3.47,1.08-.07,0-.25.27-.3.43A1.09,1.09,0,0,1,377,61a20.26,20.26,0,0,0-3.17,2.68.34.34,0,0,1-.5.06c-.16-.1-.38-.29-.5-.24-.31.12-.18.41-.09.63a.94.94,0,0,1,0,.93c-.7,1.19-1.35,2.39-2,3.6a3.52,3.52,0,0,1-.5-1.92c-.26-1.88-.48-3.77-.91-5.62-.22-.94-.83-1.83-.34-2.85a.37.37,0,0,0-.1-.35c-.77-.43-.58-1.28-.86-1.92a.79.79,0,0,1,.05-.76c.17-.26.62-.42.5-.78s-.53,0-.81-.09-.25-.27-.31-.45c-.42-1.38-.84-2.78-1.26-4.17-.22-.42-.19-1-.79-1.17a4.81,4.81,0,0,0-3.73-1.31l-1.36,0c-.48-.28-.64.25-.95.39a7.44,7.44,0,0,0-4.2,3.41c-.17.29-.31.54-.72.53s-.48.22-.29.49a1.81,1.81,0,0,1,.09,1.85,26.81,26.81,0,0,0-1.29,5c-.9.17-.94.21-.46.83a1.28,1.28,0,0,1,.23,1.1c-.24,1.33.3,2.73-.46,4-.16.28.46.67.49,1.18.06,1.18.24,2.36.38,3.54.19.9.19.9-.46.86-.85.19-1.33-.57-2-.79-.92-.14-.1-1.51-1.13-1.58-.12.39-.4.56-.74.34a3.28,3.28,0,0,0-2.31-.35c-.55.06-1.06.53-1.67.12-.12-.09-.31.11-.24.37a.84.84,0,0,1-.06.75,5.6,5.6,0,0,0-1,3.2c0,.36-.24.55-.53.76s-.08.39.19.43.58,0,.65.32c.16.71.29,1.43.38,2.15,0,.32-.65.34-.44.73s.49.41.71.65a1.3,1.3,0,0,1,.25.53,29,29,0,0,0,2,5.16c.09.17.22.44.15.54-.35.55,0,.61.4.79s.42.5.68.68c.56.39.18,1.32.94,1.57s1,.89,1.47,1.3c.24.2.57.38.5.82-1.06.48-2.15.94-3.21,1.45a3.85,3.85,0,0,0-1.84,1.48A8,8,0,0,0,344.45,97a11.8,11.8,0,0,0,.83,2.85c.4.91.8,1.83,1.13,2.77a5.1,5.1,0,0,1-.59,4.75,5.41,5.41,0,0,1-2.29,1.86c-1.45.66-2.92,1.28-4.37,1.93a25.46,25.46,0,0,0-8.64,5.93,16.49,16.49,0,0,0-4.16,8.47,20.1,20.1,0,0,0-.11,7.73.92.92,0,0,1-.09.77,3.43,3.43,0,0,1-1.56.1l-14.55-.2-21.33-.25a1.81,1.81,0,0,0-1.15.19.85.85,0,0,0-.3.46c-.08.23.11.36.26.49.39.35.88.22,1.33.23l30.3.35c6,.06,12.1.09,18.14.16l48.84.64c6.12.07,12.23.09,18.35.17l48.24.62c6.78.09,13.55.13,20.33.21l36.28.44a2.86,2.86,0,0,0,1.56-.17v-1.2ZM467.61,85.59a3.31,3.31,0,1,1,3.3,3.27A3.22,3.22,0,0,1,467.61,85.59Zm-97.85.55c0-.13,0-.26,0-.39a4.85,4.85,0,0,1,.78-2.4,4.07,4.07,0,0,1,0-2.49l1-.07c-1-1.28-1-1.28-.89-2.86,0-.79.07-1.59.09-2.38,0-.46-.08-.94.57-1.09.23-.06.13-.34,0-.43-.74-.39-.69-1.07-.63-1.73a4.76,4.76,0,0,1,.21-1,25.87,25.87,0,0,1,2.51-4.95l.91.56c.06-.11.2-.27.18-.31a1.4,1.4,0,0,1,.3-2.08c.66-.56,1.31-1.12,1.94-1.72.36-.34.79-.31,1.23-.41s.36-.77.81-1A12.64,12.64,0,0,1,384,59.58c.67,0,.86.09.85.74,0,1.33-.05,2.65-.09,4-.12,3.85-.34,7.7-.33,11.55A15,15,0,0,1,382,83.93c-.55.9-1.07,1.82-1.6,2.73a7.31,7.31,0,0,1-5.7,3.87,4.93,4.93,0,0,1-2.72-.45C370.06,89.13,369.57,88.28,369.76,86.14ZM354.38,60.4c-.53-1.26,0-2.46.31-3.63.21-.85.21-1.86,1.05-2.48.49-.18,0-.45.06-.67a5.63,5.63,0,0,1,2.36-3.75c.52-.31,1.1-1.2,1.79-.14.06.09.42,0,.44-.25a.74.74,0,0,1,.76-.75c2.11-.2,3.44.68,3.94,2.25a2.14,2.14,0,0,1,.16,1.53c-.23.52.18.62.5.79.24.92.84,1.79.44,2.82-.1.25.09.36.25.45a1,1,0,0,1,.46.82c.22,1.68.79,3.28,1.1,4.94a.66.66,0,0,1-.35.81c-.29.16-.34.44,0,.53.58.15.67.59.73,1,.16,1.11.29,2.22.43,3.32-.11.24-.32.48-.07.75.74,1.35.51,2.83.56,4.28,0,.16-.19.32-.28.49s-.37.29-.12.44c.84.51.44,1.31.47,2,.06,1,0,2-.05,2.88-.55.43-1.1-.34-1.52.22.26.61,1.14.44,1.36,1.05s-.11,1.17-.21,1.75.09,1.38-.86,1.53c-.12,0-.11.17,0,.31.94,1.27,0,2.52-.08,3.77,0,.21-.3.43-.5.59a4,4,0,0,1-3.54.83,2.18,2.18,0,0,1-1.78-1.64,42,42,0,0,0-3.7-8.76,38.51,38.51,0,0,0-2.43-3.86,10.9,10.9,0,0,1-1.62-5,.69.69,0,0,1,.26-.7c.15-.11.22-.21.09-.32-1.06-.92-.76-2.11-.65-3.26.74-.56-.23-.55-.28-.85C353.93,63.1,353.55,61.67,354.38,60.4Zm-3.75,25.53c0-.08-.15-.27-.21-.26a1.15,1.15,0,0,1-1.11-.7,22.63,22.63,0,0,1-2.05-3.62.62.62,0,0,1-.07-.19c0-.22.15-.32.31-.43s.61-.12.49-.48-.44-.16-.68-.17-.64-.09-.76-.48-.33-1-.48-1.52c-.3-1-.29-1,.4-1.9-.6-.11-1.1-.24-1.13-1.05s-.27-1.83-.34-2.76a3.13,3.13,0,0,1,.15-1.36c.7-1.87,2.3-1.81,3.54-.94.33.24.2.59.23.91s.28.38.49.13a.5.5,0,0,1,.69-.16c.28.16.55.5.83.51,1,0-.06,1.58,1.12,1.37.93-.17,1.15.73,1.64,1.17a11.11,11.11,0,0,1,1.3,1.51,20.49,20.49,0,0,1,1.24,1.8,41.9,41.9,0,0,1,3.59,7.3,28.19,28.19,0,0,1,1.36,3.94,7.84,7.84,0,0,1,.21,2.36c-.08.93-.54,1.27-1.48,1.11a5.12,5.12,0,0,1-.77-.2,19.6,19.6,0,0,1-7.53-4.3C351.16,87.08,350.45,86.77,350.63,85.93Zm32,10.07a128.05,128.05,0,0,1-19.87.85,59.21,59.21,0,0,1-10.86-1.21c-1.29-.28-2.56-.65-3.84-1a3.33,3.33,0,0,1-.9-.41,1.08,1.08,0,0,1-.27-1.57,3.15,3.15,0,0,1,.89-.78c.75-.41,1.55-.75,2.32-1.13a3.41,3.41,0,0,1,4.18.29c.73.63,4.34,1.94,4.71,2.19a13.83,13.83,0,0,0,1.58.13,2,2,0,0,0,2-1.63c.14-.51.2-1,.29-1.51.37-.23.68,0,1,0a5.36,5.36,0,0,0,3.83-.67c.91-.48.91-.47,1.68.19.2.18.37.38.58.54a6.57,6.57,0,0,0,7.09,1,10,10,0,0,0,3.36-2.42,6,6,0,0,0,.77-.91,1.35,1.35,0,0,1,1.54-.62c.19,0,.4,0,.59.06.44.06.73.27.71.77s0,.8,0,1.19c-.08,1.79-.15,3.59-.23,5.38C383.7,95.82,383.64,95.88,382.64,96Zm69.82,39.65c-.26,0-.53,0-.79,0l-30.7-.34q-17-.19-34.09-.42a5.44,5.44,0,0,1-2.9-.31,8.75,8.75,0,0,1,0-2.75q.25-9.26.54-18.53c.22-7.1.48-14.21.7-21.31q.48-15.54.94-31.08c.14-4.71.31-9.42.47-14.13,0-.33,0-.67,0-1,.07-1.09.11-1.13,1.13-1.15h34.29v-.07h33.29c2.08,0,1.94-.17,2,1.92.07,7.24.12,14.48.2,21.73q.14,13.76.31,27.51c0,.59,0,1.19,0,1.79a1.4,1.4,0,0,1-.64,1.35,13.22,13.22,0,0,0-2.34,2.15,12,12,0,0,0-2.9,7.06,2.62,2.62,0,0,0,.31,1.92,2.69,2.69,0,0,1,.36,1.72q.19,11.35.4,22.72v.6A.55.55,0,0,1,452.46,135.65Zm36.32.46h-1l-31.67-.38c-1.94,0-1.75-.08-1.78-1.73q-.18-10.56-.37-21.11a4.34,4.34,0,0,1,.13-1.81,3.91,3.91,0,0,1,.76.14,35,35,0,0,0,8.92,1.9,75.81,75.81,0,0,0,10.55.44,56.37,56.37,0,0,0,10.28-1.06,15.65,15.65,0,0,0,3.95-1.3,2,2,0,0,1,.54-.12c.31.3.19.65.2,1q.09,11.27.17,22.52c0,.26,0,.53,0,.8C489.46,135.8,489.29,136.11,488.78,136.11Z"/><path fill="#040303" d="M41,478.45a4.29,4.29,0,0,0-2.46-1.92c-.69-.22-1.41-.35-2.12-.53-.48-.13-.61-.47-.31-.91s.78-1.06,1.17-1.6a9.08,9.08,0,0,0,1.44-2.6c.55-1.86-.17-3.09-2-3.64a15.49,15.49,0,0,0-3.47-.33c.22-.53.44-1,.61-1.46.09-.27-.4-.66-.67-.54a1.28,1.28,0,0,0-.49.29,13.15,13.15,0,0,1-2,2.48.75.75,0,0,0-.21.53,3.22,3.22,0,0,1-.56,1.47,6.58,6.58,0,0,0-.32.72.57.57,0,0,0,.3.67c.28.18.5,0,.69-.16a2.35,2.35,0,0,0,.23-.32c1.05-.11.17.91.66,1.13.11,4,.32,8.08.75,12.07-.44.24-.66-.13-1-.14s-.4,0-.53.16a.62.62,0,0,0,0,.73.81.81,0,0,0,.27.28,3.77,3.77,0,0,1,1.79,1.78.55.55,0,0,0,.69.25c.58-.27,1,0,1.47.28s1.13.24,1.23-.07c.14-.48-.23-.7-.51-1-.48-.48-.47-.58,0-.83.83-.4,1.68-.77,2.52-1.17a7,7,0,0,0,2.38-1.76A3.17,3.17,0,0,0,41,478.45Zm-1.72,3.37a6.5,6.5,0,0,1-1.47,1c-1.12.58-2.27,1.1-3.41,1.63-.46.22-.75.05-.8-.47-.17-1.78-.34-3.57-.47-5.36-.1-1.32-.13-2.65-.2-4h0c-.09-1.73-.19-3.45-.28-5.18-.06-1.13,0-1.22,1.21-1.27a7.67,7.67,0,0,1,2.56.33,1.35,1.35,0,0,1,1,2,6.47,6.47,0,0,1-.77,1.38c-.47.73-1,1.42-1.46,2.14a7.09,7.09,0,0,0-.6,1,1.28,1.28,0,0,0,.73,1.94,14.14,14.14,0,0,0,1.52.45,7.61,7.61,0,0,1,2,.73A2.16,2.16,0,0,1,39.25,481.82Z"/><path fill="#010101" d="M77.38,445.5a2.84,2.84,0,0,0-1.1-2,8.27,8.27,0,0,0-2.44-1.33,29.64,29.64,0,0,0-6.58-1.51,93,93,0,0,0-13.18-.81,166.81,166.81,0,0,0-30,2.86,67.94,67.94,0,0,0-12.43,3.5,19.91,19.91,0,0,0-3.19,1.62,6.24,6.24,0,0,0-1.64,1.43A2.29,2.29,0,0,0,6.43,452a7.3,7.3,0,0,1,.71,1.85c1.56,5.55,3,11.14,4.68,16.67,1.21,4,2.23,8.05,3.34,12.08C17,489.32,18.89,496,20.7,502.76a2.69,2.69,0,0,0,1.88,2.09c.82.26,1.63.57,2.45.81a59,59,0,0,0,13.79,1.87A80,80,0,0,0,49,507.24a68,68,0,0,0,14.08-2.57c1.08-.32,2.14-.71,3.19-1.12A4,4,0,0,0,69,500.41c0-.27.07-.53.11-.79l4.26-26.75q2-12.19,3.88-24.4A11.78,11.78,0,0,0,77.38,445.5Zm-1.69,4.33-4.77,30.1q-1.61,10.13-3.19,20.27a2,2,0,0,1-1.2,1.66A32.41,32.41,0,0,1,59,504.39a80.11,80.11,0,0,1-21.18,1.75,57.85,57.85,0,0,1-10.66-1.31c-1.23-.29-2.42-.7-3.64-1a2.1,2.1,0,0,1-1.64-1.74c-1.13-4.3-2.35-8.58-3.53-12.86q-3.26-11.81-6.5-23.61c-1-3.71-2.1-7.4-3.16-11.1.05-.34.17-.59.58-.37a42.88,42.88,0,0,0,10.93,2,127.64,127.64,0,0,0,20.32,0,134.25,134.25,0,0,0,25.35-3.93,34.08,34.08,0,0,0,9.78-4A2.7,2.7,0,0,1,75.69,449.83Zm.07-3.61A5.35,5.35,0,0,1,74,447.75a23.24,23.24,0,0,1-4.53,2,78.33,78.33,0,0,1-11.17,2.8,149.7,149.7,0,0,1-18.16,2.29,130.72,130.72,0,0,1-19.49,0,47.19,47.19,0,0,1-9.22-1.51,11.17,11.17,0,0,1-3.1-1.31,1.34,1.34,0,0,1-.21-2.32,10,10,0,0,1,3.18-2,54.37,54.37,0,0,1,10-3.14A143.28,143.28,0,0,1,41,441.73c4.17-.35,8.34-.45,12.18-.61a112.42,112.42,0,0,1,13.46.72,29.1,29.1,0,0,1,6.77,1.51,6.11,6.11,0,0,1,2.23,1.27A1.12,1.12,0,0,1,75.76,446.22Z"/><path fill="#0f0b0b" d="M228.4,141.7a1.19,1.19,0,0,1,.44.16c.46.38.91.78,1.33,1.2q4.16,4.14,8.29,8.3a12.44,12.44,0,0,1,1.16,1.36.51.51,0,0,1-.11.71.64.64,0,0,1-.74.06,3.64,3.64,0,0,1-.61-.49q-5-5-9.91-10.07a2.58,2.58,0,0,1-.4-.66C227.77,142.1,228.1,141.7,228.4,141.7Z"/><path fill="#0d0c0c" d="M199.5,153.72a.55.55,0,0,1-.54-.54,1.27,1.27,0,0,1,.2-.74A128.08,128.08,0,0,1,206.79,142a2.5,2.5,0,0,1,.27-.29.85.85,0,0,1,.92-.19c.29.13.3.61,0,1-2.65,3.25-5,6.74-7.34,10.18a5.8,5.8,0,0,1-.62.77A1.75,1.75,0,0,1,199.5,153.72Z"/><path fill="#0e0e0e" d="M215.4,157.9l.4-2.79c.38-2.48.77-5,1.14-7.44a4,4,0,0,1,.42-1.51.49.49,0,0,1,.67-.22.8.8,0,0,1,.35.42,1.46,1.46,0,0,1,0,.58c-.57,3.78-1.16,7.57-1.44,11.39a3,3,0,0,1-.14.78c-.11.32-.32.61-.7.56a.68.68,0,0,1-.65-.62A9.67,9.67,0,0,1,215.4,157.9Z"/><path fill="#141313" d="M187.67,235.22c-.11-1.05-.22-2.1-.32-3.15a6.06,6.06,0,0,1,.88-4.17,2.69,2.69,0,0,1,.52-.59.51.51,0,0,1,.71,0,.92.92,0,0,1,.17.52.58.58,0,0,1-.15.36,5.72,5.72,0,0,0-.66,4.76,11.75,11.75,0,0,1,.16,3,2.55,2.55,0,0,1-.14.77.62.62,0,0,1-1.23-.12,8.93,8.93,0,0,1,0-1.37Z"/><path fill="#232020" d="M192.34,237.48a4,4,0,0,1,.68-2,.6.6,0,0,1,.7-.21.51.51,0,0,1,.38.61,3.56,3.56,0,0,0,0,3,.52.52,0,0,1-.29.66.6.6,0,0,1-.85-.21A4.24,4.24,0,0,1,192.34,237.48Z"/><path fill="#191818" d="M188.56,242.88c0-.39,0-.79,0-1.18a.58.58,0,0,1,1.11-.17,13.25,13.25,0,0,1,.36,1.75,1.33,1.33,0,0,1-.38,1.1.7.7,0,0,1-.7.26.51.51,0,0,1-.4-.58c0-.39.09-.78.14-1.17Z"/><path fill="#221e1e" d="M197.14,243.56a6.33,6.33,0,0,1-.22,1.1.5.5,0,0,1-.63.33c-.16-.07-.4-.25-.41-.38,0-.85,0-1.71,0-2.56a.48.48,0,0,1,.57-.42.75.75,0,0,1,.46.32A3.21,3.21,0,0,1,197.14,243.56Z"/><path fill="#1a1515" d="M182.65,239.21a4,4,0,0,1,.27-.49c.19-.27.73-.28.83,0,.26.74.5,1.49.73,2.24a.66.66,0,0,1-.53.71.58.58,0,0,1-.62-.38A7.19,7.19,0,0,1,182.65,239.21Z"/><path fill="#201e1e" d="M181.55,243.92c0,.17-.07.43-.15.68a.64.64,0,0,1-.58.46.5.5,0,0,1-.53-.48c0-.72,0-1.45,0-2.17a.37.37,0,0,1,.41-.33.87.87,0,0,1,.5.24C181.56,242.75,181.49,243.3,181.55,243.92Z"/><path fill="#f59c30" d="M89.2 171.76a.77.77 0 01-.71-.77.74.74 0 01.7-.77.78.78 0 01.82.85A.87.87 0 0189.2 171.76zM132.85 132.22a.74.74 0 01.73-.75.76.76 0 01.82.65.83.83 0 01-.82.88A.86.86 0 01132.85 132.22z"/><path fill="#f6a33e" d="M138.76,162.36a.83.83,0,0,1,.73.77.81.81,0,0,1-.93.74.75.75,0,0,1-.6-.85A.79.79,0,0,1,138.76,162.36Z"/><path fill="#f59e34" d="M96.17,232.65a.8.8,0,0,1-.74-.74.81.81,0,0,1,.91-.76A.71.71,0,0,1,97,232,.81.81,0,0,1,96.17,232.65Z"/><path fill="#f59c31" d="M187.94,182.88a.83.83,0,0,1-.75-.75.82.82,0,0,1,.9-.78.72.72,0,0,1,.62.82A.8.8,0,0,1,187.94,182.88Z"/><path fill="#f69c31" d="M111.66,130.62a.65.65,0,0,1-.57.69.82.82,0,0,1-.88-.62.73.73,0,1,1,1.45-.07Z"/><path fill="#f59828" d="M108,148.08a.78.78,0,0,1-.82.67.67.67,0,0,1-.69-.76.72.72,0,0,1,.78-.68A.77.77,0,0,1,108,148.08Z"/><path fill="#f69f36" d="M154.6,186.74c-.14.3-.28.59-.41.88a7.36,7.36,0,0,1-.92-.25.51.51,0,0,1-.29-.77.57.57,0,0,1,.79-.31C154.05,186.42,154.32,186.59,154.6,186.74Z"/><path fill="#050404" d="M366.09,49.77l-.79-1.17c.81.07.95-1.26,1.89-.91.11.84-.89,1-1,1.71C366.15,49.52,366.12,49.65,366.09,49.77Z"/><path fill="#f48b0d" d="M122.21 235.33a.67.67 0 01-.7.74.63.63 0 01-.71-.53.72.72 0 01.59-.86A.73.73 0 01122.21 235.33zM177.66 209.53a.72.72 0 01-.85.6.63.63 0 01-.58-.67.69.69 0 01.74-.72A.74.74 0 01177.66 209.53z"/><path fill="#f59f37" d="M105.38,201.7c-.07.42-.28.66-.64.67a.77.77,0,0,1-.68-.94.61.61,0,0,1,.71-.49A.71.71,0,0,1,105.38,201.7Z"/><path fill="#f59623" d="M157.11,133.33a.65.65,0,0,1-.63.62.63.63,0,1,1,0-1.25A.65.65,0,0,1,157.11,133.33Z"/><path fill="#050404" d="M350.55,69.7a.76.76,0,0,1-.84-.66c-.06-.32,0-.66-.29-.92a1.62,1.62,0,0,1-.07-.57c0-.16.18-.29.28-.44.14.14.34.26.38.42a2.23,2.23,0,0,1,0,1C349.94,69,350.3,69.34,350.55,69.7Z"/><path fill="#f6a33f" d="M151.21,145.45a.64.64,0,0,1-.71-.51.57.57,0,0,1,.49-.69.58.58,0,0,1,.7.49A.6.6,0,0,1,151.21,145.45Z"/><path fill="#f69f37" d="M121.39,149.51a.65.65,0,0,1,.66.59.56.56,0,0,1-.44.56.58.58,0,0,1-.74-.45A.62.62,0,0,1,121.39,149.51Z"/><path fill="#f69d33" d="M125,167.4a.58.58,0,0,1-.49-.71.58.58,0,0,1,.56-.46.64.64,0,0,1,.61.63A.62.62,0,0,1,125,167.4Z"/><path fill="#f7a849" d="M123.89,224.16c-.08.32-.22.6-.61.63a.58.58,0,0,1-.64-.58.56.56,0,0,1,.59-.62A.63.63,0,0,1,123.89,224.16Z"/><path fill="#f49624" d="M157.53,158.72a.66.66,0,0,1-.63.63c-.3.05-.61-.32-.6-.64a.63.63,0,0,1,.62-.64C157.21,158,157.54,158.42,157.53,158.72Z"/><path fill="#f6a340" d="M117.7,179c-.32,0-.68-.3-.62-.6s.24-.61.64-.6a.58.58,0,0,1,.62.6A.61.61,0,0,1,117.7,179Z"/><path fill="#f69f36" d="M174.47,201.67a.62.62,0,0,1-.54-.69.58.58,0,0,1,.73-.46.57.57,0,0,1,.45.56A.63.63,0,0,1,174.47,201.67Z"/><path fill="#f7af58" d="M147.38,201.34a.62.62,0,0,1,.55.67.54.54,0,0,1-.55.47.56.56,0,0,1-.55-.47A.62.62,0,0,1,147.38,201.34Z"/><path fill="#f59725" d="M106.36,173.38a.68.68,0,0,1,.63.62.64.64,0,0,1-.63.61.63.63,0,0,1-.63-.61C105.7,173.72,106.06,173.39,106.36,173.38Z"/><path fill="#f69e35" d="M154.81,173.39a.59.59,0,0,1,.07-1.17.66.66,0,0,1,.62.63A.64.64,0,0,1,154.81,173.39Z"/><path fill="#f49624" d="M139.45,198.86a.63.63,0,0,1-.72-.56.56.56,0,0,1,.56-.65c.36,0,.67.12.7.53A.62.62,0,0,1,139.45,198.86Z"/><path fill="#f7b15c" d="M148.65,165.93a.65.65,0,0,1-.49.54.52.52,0,0,1-.58-.6.49.49,0,0,1,.55-.43A.54.54,0,0,1,148.65,165.93Z"/><path fill="#f59a2c" d="M138.7,178a.64.64,0,0,1-.62.6.54.54,0,0,1-.53-.46.56.56,0,0,1,.47-.69A.68.68,0,0,1,138.7,178Z"/><path fill="#f6a23c" d="M133.13,199.82a.57.57,0,0,1,.68-.51.52.52,0,0,1,.49.51.63.63,0,0,1-.59.65C133.42,200.52,133.11,200.15,133.13,199.82Z"/><path fill="#f69d31" d="M115.9,198.21a.66.66,0,0,1,.56.67.54.54,0,0,1-.5.49.57.57,0,0,1-.67-.52A.73.73,0,0,1,115.9,198.21Z"/><path fill="#050404" d="M360.21,47.33l-.95.39c0-.32,0-.65.07-1s0-.56.37-.53.39.27.43.53S360.18,47.14,360.21,47.33Z"/><path fill="#f6a13c" d="M189.38,161.67a.54.54,0,0,1-1.06.18c-.08-.28.24-.74.52-.69A.62.62,0,0,1,189.38,161.67Z"/><path fill="#f69e35" d="M95.9,206.31c-.08.25-.16.5-.47.53a.45.45,0,0,1-.54-.4.51.51,0,0,1,.51-.64C95.7,205.83,95.81,206.06,95.9,206.31Z"/><path fill="#f5941f" d="M98.11,181.35c0,.27-.27.68-.55.63a.63.63,0,0,1-.56-.48.56.56,0,0,1,.56-.63C97.81,180.9,98.08,181,98.11,181.35Z"/><path fill="#050404" d="M382.2,58.46l-1,.42c0-.19.08-.38.14-.56s.2-.65.62-.52S382.15,58.22,382.2,58.46Z"/><path fill="#f49018" d="M157.08,218.82a.39.39,0,0,1-.37-.39.39.39,0,0,1,.52-.37.36.36,0,0,1,.25.46C157.42,218.7,157.3,218.86,157.08,218.82Z"/><path fill="#f5931c" d="M168.84,163.4c.18.06.34.14.32.39a.39.39,0,0,1-.36.38c-.25,0-.53-.27-.43-.5A.43.43,0,0,1,168.84,163.4Z"/><path fill="#f8ad53" d="M159.3,227.47c.08-.07.16-.19.23-.18s.17.11.25.17-.1.13-.14.13A2.79,2.79,0,0,1,159.3,227.47Z"/><path fill="#c5203b" d="M345.89 94.81c3.76 2.36 7.82 2.72 11.83 3.14a90 90 0 0013.54.35c3.78-.18 7.57-.36 11.32-.9l.2 0c.68-.08.89.06.88.7 0 1.33 0 2.66-.08 4q-.39 12.35-.78 24.7c-.08 2.4-.19 4.79-.3 7.17 0 .78-.19.92-1 .93-1.13 0-2.26 0-3.39 0-8.24-.08-16.48-.14-24.72-.23q-12-.13-23.92-.32c-1.64 0-1.91-.18-2-1.76-.3-3.89-.1-7.7 1.79-11.26a17.41 17.41 0 015.26-5.89 29.38 29.38 0 016.1-3.34c1.29-.54 2.59-1.06 3.82-1.71A6.4 6.4 0 00347.9 106a5.9 5.9 0 000-3 28.81 28.81 0 00-1.53-3.89A6.51 6.51 0 01345.89 94.81zM470.73 91.05c2 2.62 4.68 3.86 7.45 4.87a26 26 0 018.39 5.25 9.12 9.12 0 013.23 6.2 2.26 2.26 0 01-1.3 2.41 15.5 15.5 0 01-5.67 1.77 70.3 70.3 0 01-15.88.56 64 64 0 01-7.7-1 19.23 19.23 0 01-4.36-1.38 2.4 2.4 0 01-1.48-2.37 5.3 5.3 0 01.32-1.75 11.79 11.79 0 013.47-5A17.25 17.25 0 01461 98.14l2.69-1.3C466.42 95.52 469 94.05 470.73 91.05z"/><path fill="#050404" d="M353.86 64.46c.39 0 .78.05 1.17.1s.74-.15.68.38-.47.37-.79.39-.52 0-.78 0C354.05 65 354 64.75 353.86 64.46zM365.75 53.3h-.2c-.34 0-.77.55-1 0s.31-.64.69-.76C365.32 52.83 365.79 52.9 365.75 53.3zM355.8 53.62c.16.11.36.18.46.33.23.31 1 .48.52 1-.3.28-.77-.26-1-.62zM368.75 68.78a1.24 1.24 0 01-.55 0c-.14-.09-.21-.31-.31-.47a1.87 1.87 0 01.35-.17 5.77 5.77 0 01.58-.08C368.8 68.28 368.77 68.53 368.75 68.78z"/><path fill="#c5203b" d="M206.48 131.7c.19-.24.47-.17.72-.17 1 0 2 0 3 0a142 142 0 0018.67-1c.83-.1 1 .11.72.8a19.78 19.78 0 01-5 7.13 10.75 10.75 0 01-3.77 2.16 8.94 8.94 0 01-6.58-.59 12 12 0 01-3-2 22.88 22.88 0 01-4.64-5.68 2.63 2.63 0 01-.22-.55S206.46 131.76 206.48 131.7zM351.53 225.88a1.19 1.19 0 011.21.84A21 21 0 01354 237.48a41.09 41.09 0 01-2.46 9.62 1.14 1.14 0 00-.08.58.63.63 0 00.48.57.74.74 0 00.55-.1 3.06 3.06 0 00.73-.92 18.5 18.5 0 00.91-2.42 56.46 56.46 0 001.57-7.39 19.39 19.39 0 00-.47-7.91c-.15-.55-.28-1.12-.42-1.67.6-.19.87.17 1.17.37 2.43 1.63 4.78 3.38 7.28 4.89 5.49 3.33 8.91 8.21 11 14.17a46.79 46.79 0 012.22 9.69 42.59 42.59 0 01.47 5.75 77.67 77.67 0 002.52 19.3c2 8.12 4.28 16.16 6.4 24.25A133.14 133.14 0 01389 321a5.94 5.94 0 010 3.13c-.24.64.09 1.31.12 2-.36.45-.76.13-1.09 0a78.21 78.21 0 00-12.7-2.43 64.71 64.71 0 01-12-3 145.74 145.74 0 01-24-10.07 56.29 56.29 0 00-8.74-3.85 22.14 22.14 0 00-8.42-1.19 19.41 19.41 0 01-4.57-.17c-.77-.15-1-.52-.78-1.28a11.28 11.28 0 01.88-2.22c1.57-2.7 1.78-5.66 1.66-8.67-.06-1.26-.3-2.51-.44-3.76a32.27 32.27 0 00-3.12-9.82c-.71-1.57-1-1.38.68-2.52a143 143 0 0011.9-9 93.13 93.13 0 0010.71-10.12 65.78 65.78 0 008.45-12 32.78 32.78 0 003.94-18.83A2 2 0 01351.53 225.88z"/><path fill="#c5203b" d="M283.68 254.65a165.78 165.78 0 01.55-17.12c.07-1.19.08-2.39.18-3.58a30.69 30.69 0 01.41-3.16 2 2 0 011.51-1.65 9.28 9.28 0 014.73-.22C296 230 301 230.56 306 231.28c1.45.2 2.88.48 4.33.67a1.24 1.24 0 011.15 1.14 13 13 0 01-.1 6.69 44.65 44.65 0 00-1.7 8.38 43 43 0 00.19 12.71 17.33 17.33 0 001.17 3.79 2.36 2.36 0 001 1.23.72.72 0 00.75 0 .6.6 0 00.28-.69 6.49 6.49 0 00-.36-.92 17.92 17.92 0 01-1.57-6.34 51.1 51.1 0 01.93-14.07 4.71 4.71 0 011.17-2.45 24.21 24.21 0 001.83-2.6 43.29 43.29 0 014.18-4.8c3.46-3.59 6.9-7.2 10.36-10.78 1.11-1.14 2.25-2.26 3.42-3.34a14 14 0 013.46-2.32 8.94 8.94 0 015.84-.64 8.6 8.6 0 014.48 2.83 11.67 11.67 0 013 7A31.57 31.57 0 01346 245.43a70.62 70.62 0 01-7.88 11.23 89.63 89.63 0 01-11.28 10.67 194.25 194.25 0 01-18.68 13.58 58.76 58.76 0 01-10.59 5.5 16.2 16.2 0 01-3.25.91 9.77 9.77 0 01-6.19-1 3.41 3.41 0 01-1.9-2.18 17.94 17.94 0 01-.67-3.71c-.27-3.51-.46-7-.88-10.52-.55-4.56-.68-9.14-1-13.71C283.65 255.71 283.68 255.18 283.68 254.65zM239.29 455.51c0 1.72.11 3.12 0 4.5-.47 4.69-1 9.38-2 14-.4 2-1 3.85-1.43 5.79a3.24 3.24 0 01-2.87 2.65 16.32 16.32 0 01-2 .25c-3.52.18-7 .45-10.55.45a37.85 37.85 0 00-14.94 2.94 19.77 19.77 0 01-6.78 1.51c-3.32.16-6.63.51-9.95.53a37.81 37.81 0 00-4 .38c-1.78.19-3.56.38-5.34.62a9.45 9.45 0 01-3.35-.33 2.09 2.09 0 01-1.57-1.4 3.66 3.66 0 01-.21-.55c-.41-2.07-.8-4.13-1.21-6.24.67-.22 1.1.25 1.61.27a12.67 12.67 0 011.38.16 22.1 22.1 0 005.57.06c2.65-.24 5.28-.49 7.91-.92A48.25 48.25 0 00202 476.35c1.74-.8 3.46-1.69 5.15-2.6 2.93-1.58 5.93-3 9-4.35 5.21-2.34 10.46-4.6 15.51-7.29C236 459.79 236.27 459.52 239.29 455.51zM136.46 468.09a34.62 34.62 0 008.37 1.67c1.72.14 3.43.33 5.17.34a24.62 24.62 0 0010.61-2.31 40.06 40.06 0 006.88-4c2-1.46 4-2.83 6.06-4.19a24.9 24.9 0 017.79-3.46 62.35 62.35 0 008.93-2.78 24.38 24.38 0 004.24-2.13c.1.2.2.31.21.43a33.1 33.1 0 001.08 6.48 1.84 1.84 0 01-.65 2.1 57.57 57.57 0 01-16.06 10.23 16.49 16.49 0 01-5.83 1.15 9.63 9.63 0 00-3.79 1.09c-2.81 1.34-5.63 2.68-8.49 3.93a23.24 23.24 0 01-8.51 1.87c-1.06 0-2.12.13-3.18.22a31.14 31.14 0 01-8.73-.24 10.32 10.32 0 01-1.54-.42 2.73 2.73 0 01-1.81-2 5.8 5.8 0 01-.25-1.17 36.14 36.14 0 00-1.41-6.41.56.56 0 01.07-.77.51.51 0 01.32.05A3.74 3.74 0 01136.46 468.09zM183.87 273.55a35.48 35.48 0 01-4.64-1.3c-.49-.21-.35-.66-.34-1 .12-4.35-.07-8.7.12-13.05.09-2.2-.09-4.46-.11-6.7 0-.61-.3-1.32.28-1.86a19.69 19.69 0 004.59 1.22 30.9 30.9 0 0012.63-.49 7.21 7.21 0 01.74-.13c.41.34.27.76.27 1.13q0 10.05-.06 20.1c0 .2 0 .4 0 .6 0 .84-.14 1-1 1.24a13.17 13.17 0 01-3.52.59c-2.06 0-4.11 0-6.17 0C185.85 272.8 184.74 274.21 183.87 273.55z"/><path fill="#c5203b" d="M213.91 468.5a53.31 53.31 0 00-2-7.92 1.3 1.3 0 01.21-1.31c.68-.9 1.31-1.83 2-2.7a51.92 51.92 0 0110.39-9.8 23.52 23.52 0 018.62-4 8.59 8.59 0 014.33.09.64.64 0 01.51.73c-.3 2.35.4 4.61.56 6.92A7.13 7.13 0 01238 454a11 11 0 01-4.67 5.27c-1.33.75-2.68 1.46-4 2.15-4.6 2.36-9.35 4.41-14.06 6.55C214.83 468.16 214.45 468.29 213.91 468.5zM176.79 455.79a5 5 0 01-.3-.76 21.18 21.18 0 00-1.39-4.55 1.79 1.79 0 01.3-2c.73-.86 1.37-1.8 2.16-2.6a37.86 37.86 0 0118.54-10.28 21.31 21.31 0 013.75-.41c1-.05 1.2.33.67 1.14a47.51 47.51 0 00-3 5.17 23.45 23.45 0 00-1.91 5 11.52 11.52 0 01-.35 1.14 4.36 4.36 0 01-2 2.41 32.76 32.76 0 01-6.93 2.95c-2.21.72-4.46 1.28-6.69 1.92C178.74 455.18 177.81 455.48 176.79 455.79zM313.52 238.09a20 20 0 00-.42-5.25 4.23 4.23 0 00-.39-1.32c-.69-1-.34-1.65.3-2.44 1.86-2.34 3.66-4.71 5.48-7.08a56.6 56.6 0 004.08-6.12c.17-.29.31-.59.49-.87.37-.61.58-.7 1.32-.53a6.05 6.05 0 01.94.3 26.42 26.42 0 007.69 2.44c.11.53-.25.66-.47.85a59.48 59.48 0 00-5.25 5.16c-3.17 3.39-6.38 6.75-9.69 10-1.12 1.12-2.05 2.43-3.07 3.65zM166.09 462.66A3.07 3.07 0 01166 462a18.3 18.3 0 00-2.89-12.71 2.06 2.06 0 01-.3-.51.86.86 0 01.12-.54 1.57 1.57 0 01.45-.39 47.94 47.94 0 005-4.2c.55-.53.83-.48 1.29.12.24.31.46.65.68 1a35.85 35.85 0 014.05 8.83c.06.19.13.38.18.57.57 2.39.51 2.47-1.6 3.82-1.78 1.15-3.52 2.37-5.28 3.56zM212.3 469.2L206.8 472c-.37.19-.61.05-.69-.38-.11-.59-.19-1.18-.27-1.77a16 16 0 00-3-7.46c-.88-1.16-1.8-2.29-2.7-3.43-.44-.56-.48-.74 0-1.19a59.06 59.06 0 004.8-5.56.49.49 0 01.83-.07 9.52 9.52 0 011.67 2.21 35.11 35.11 0 011.63 3.17A47.79 47.79 0 01212.3 469.2z"/><path fill="#1a0b00" d="M179.18,249.62a65.53,65.53,0,0,0-.15,7.15.62.62,0,0,0,.69.73.51.51,0,0,1,.53.48.55.55,0,0,1-.58.65c-.55,0-.66.26-.66.72,0,3.92,0,7.83,0,11.74a6,6,0,0,0,.24,1.16.66.66,0,0,1-.51-.54,9.39,9.39,0,0,1-.06-1.19V251.19c0-.33,0-.67,0-1A.7.7,0,0,1,179.18,249.62Z"/><path fill="#301901" d="M183.87,273.55l.95,0a.55.55,0,0,0,.57-.4c.12-.38.33-.73.82-.57s.45.56.44.95a2.36,2.36,0,0,0,0,.38l-1.75,0A1.21,1.21,0,0,1,183.87,273.55Z"/><path fill="#816003" d="M135.62 467.76c0 .26 0 .52-.07.77a.65.65 0 01-.29-.76C135.33 467.54 135.49 467.57 135.62 467.76zM136.46 468.09a.47.47 0 01-.52-.28A.47.47 0 01136.46 468.09z"/><path fill="#448181" d="M9.27,454.13l-.58.37c-.26-.14-.34-.4-.15-.58S9.08,453.85,9.27,454.13Z"/><path fill="#050505" d="M122.74,157a16.4,16.4,0,0,0-7.26-8.19c-.76-.42-1.55-1.53-2.44-.8s-.29,1.79,0,2.64a28,28,0,0,0,3.91,8.66,18.29,18.29,0,0,0,3.57,3.73,7.15,7.15,0,0,0,2.07,1.16.81.81,0,0,0,1.08-.59c.11-.65.14-1.32.2-2A13.18,13.18,0,0,0,122.74,157Zm-.33,5.61c-4.07-2.45-7.84-8.61-7.84-12.62C119.25,152.09,122.75,157.66,122.41,162.56Z"/><path fill="#060505" d="M155.34,150.17a9.59,9.59,0,0,0-.18-1.78.92.92,0,0,0-1.63-.54,6.7,6.7,0,0,0-.66.74,20.87,20.87,0,0,0-4.4,13.35,11.68,11.68,0,0,0,.38,2.75,1.21,1.21,0,0,0,2.08.78,7.16,7.16,0,0,0,2.46-2.83,14.72,14.72,0,0,0,1.46-4.72c.15-1.66.29-3.31.43-5h.06C155.34,152,155.36,151.09,155.34,150.17Zm-1.37.7a57.32,57.32,0,0,1-.45,6.93,12.37,12.37,0,0,1-1.57,4.67,3.24,3.24,0,0,1-1.83,1.65c-1.07-4.35.7-11.2,3.66-14.14C154.13,150.21,154,150.57,154,150.87Z"/><path fill="#070505" d="M112.74,160a14.08,14.08,0,0,0-5.89-5.75,21.24,21.24,0,0,0-8.75-2c-.36,0-1,.07-1.68.18a.8.8,0,0,0-.6,1.07,4,4,0,0,0,.52,1.06,11.39,11.39,0,0,0,2.1,2.12,25.89,25.89,0,0,0,9.6,4.61,8.92,8.92,0,0,0,3.95.12C112.85,161.31,113.16,160.75,112.74,160Zm-4,.1a23.89,23.89,0,0,1-9.91-4.82,9.8,9.8,0,0,1-1.08-1.15s0-.27.13-.33a.67.67,0,0,1,.38-.08,16.57,16.57,0,0,1,9.1,2.37,8.9,8.9,0,0,1,3.73,4.05A6,6,0,0,1,108.76,160.14Z"/><path fill="#060606" d="M145.77 162.31a34.22 34.22 0 00-.59-4.13 4.37 4.37 0 00-.45-1.3.91.91 0 00-1.61-.23 9.77 9.77 0 00-.91 1.3 18.47 18.47 0 00-2.4 9.66c.05.58.1 1.7.24 2.82a16.84 16.84 0 00.46 2.33 1.42 1.42 0 002.55.66 6.86 6.86 0 001.71-2.87A24 24 0 00145.77 162.31zm-1.87 6.38a7.54 7.54 0 01-1.23 3.12c-.19.26-.37.56-.75.57-1.59-4-.76-10.73 1.88-14.09A22.86 22.86 0 01143.9 168.69zM167.08 144c-.64-.33-1.13.17-1.61.5a17.31 17.31 0 00-7.4 12.44 2 2 0 00.09 1c.28.87.67 1.09 1.47.76a7.32 7.32 0 002.11-1.46 24.18 24.18 0 003.53-4 13.89 13.89 0 002.53-7.24c0-.06 0-.13 0-.19C167.76 145.06 167.77 144.34 167.08 144zM165 151a20.94 20.94 0 01-4.49 5.53 2.62 2.62 0 01-.66.44.29.29 0 01-.4-.28 10.9 10.9 0 01.69-3.09 16 16 0 015.55-7.58.92.92 0 01.36-.13c.06 0 .13 0 .27 0A8.57 8.57 0 01165 151z"/><path fill="#070404" d="M108.45,188.23a4.63,4.63,0,0,0-1.78-.84,10.9,10.9,0,0,0-8.29,1,17.07,17.07,0,0,0-3.69,2.68c-.59.55-1.15,1.11-1.72,1.67a1,1,0,0,0-.32,1.07.81.81,0,0,0,.81.46c.87,0,1.73,0,2.59,0v.05c.47,0,.93,0,1.4,0,3.48-.14,6.67-1,9.25-3.55.38-.36.85-.64,1.26-1a4.2,4.2,0,0,0,.58-.53A.74.74,0,0,0,108.45,188.23Zm-13.34,4.53a11,11,0,0,1,11.5-4C104.79,192,99,193.7,95.11,192.76Z"/><path fill="#060505" d="M146.43 140a.78.78 0 00-1.12-.72 3.67 3.67 0 00-.52.27 23.12 23.12 0 00-6.15 5 12.34 12.34 0 00-2.93 6.23 2.26 2.26 0 00.81 2.5 2.3 2.3 0 002.45-.21 10.13 10.13 0 003.45-3.25 30 30 0 003.41-6.73 7.85 7.85 0 00.6-2.71C146.43 140.23 146.44 140.09 146.43 140zm-1.78 2.46a28.88 28.88 0 01-3.4 6.72 8.31 8.31 0 01-3.42 3 .64.64 0 01-.93-.65 9.28 9.28 0 011.17-3.76 17.52 17.52 0 016.62-6.41A1.27 1.27 0 01144.65 142.42zM131.92 188a17 17 0 00-3.89-5.46 21.09 21.09 0 00-6.63-4.26c-.87-.37-1.44.1-1.31 1a4.12 4.12 0 00.12.59 11 11 0 001.8 3.93 21.31 21.31 0 004.62 4.62c1.06.78 2.19 1.47 3.29 2.21a2 2 0 001.89.15c.44-.14.6-.47.64-1.23A4.54 4.54 0 00131.92 188zm-.95 1.77c-4-2.49-7.55-5-9.29-9.43.22-.1.37-.22.44-.18a17.63 17.63 0 018.52 8 5.74 5.74 0 01.38.92C131.06 189.25 131 189.39 131 189.81z"/><path fill="#060404" d="M118.85,184.41a12.79,12.79,0,0,0-5.44-5.09,15.13,15.13,0,0,0-7.12-1.51c-.73,0-1.46,0-2.19,0a.71.71,0,0,0-.71.57.56.56,0,0,0,.32.66,12.55,12.55,0,0,1,2.17,1.74,22.24,22.24,0,0,0,3.06,2.21,29.28,29.28,0,0,0,8.44,3.43c.59.16,1.2.33,1.67-.2S119.19,185,118.85,184.41Zm-9.49-2.73a8,8,0,0,1-3-2.52c5-.19,9.71,2.53,11.22,5.79A21.58,21.58,0,0,1,109.36,181.68Z"/><path fill="#070404" d="M120.26,202.06a4.65,4.65,0,0,0-2.25-.7,16.82,16.82,0,0,0-13.16,4.42,4.22,4.22,0,0,0-.53.59.6.6,0,0,0,.14.87,2.25,2.25,0,0,0,1.08.48,8.38,8.38,0,0,0,3,.08c.69,0,1.42-.07,2.15-.13a13.86,13.86,0,0,0,8.39-3.17,15.43,15.43,0,0,0,1.37-1.43A.65.65,0,0,0,120.26,202.06Zm-1.87,1.27a10.64,10.64,0,0,1-4.48,2.44,28.1,28.1,0,0,1-7.32.7.51.51,0,0,1,.25-.63,16.36,16.36,0,0,1,10.58-3.29,4.05,4.05,0,0,1,.78.09.55.55,0,0,1,.32.19C118.66,203,118.54,203.2,118.39,203.33Z"/><path fill="#080505" d="M185.16,162.63a13.54,13.54,0,0,0-2.36-.33,16.2,16.2,0,0,0-9.54,3,29.54,29.54,0,0,0-2.37,1.8c-.3.25-.59.58-.39,1a1.09,1.09,0,0,0,.95.63c.53,0,1.06.08,1.21.09a25.65,25.65,0,0,0,8.89-1.9,10.79,10.79,0,0,0,3.09-1.79,7,7,0,0,0,1-1A.91.91,0,0,0,185.16,162.63Zm-12.22,4.76c1.28-2.17,7.17-4.11,10.95-3.5A18.48,18.48,0,0,1,172.94,167.39Z"/><path fill="#070606" d="M116.74 216.14a3.89 3.89 0 00-1.09.46 9.27 9.27 0 00-4 5.29 35 35 0 00-1.13 7.3c0 .36 0 .76.07 1.15a.75.75 0 001.32.49 14.33 14.33 0 003.84-5 23.18 23.18 0 001.46-5.35c.18-1.19.32-2.37.44-3.56A.8.8 0 00116.74 216.14zM114.2 226a11.29 11.29 0 01-2.14 2.74 19.39 19.39 0 011-6.69 8 8 0 012.66-3.86.41.41 0 01.35-.06.34.34 0 01.2.27A23.38 23.38 0 01114.2 226zM109 217.62a2 2 0 00-1.1.42A12.11 12.11 0 00102.32 230c.1.52.16 1.05.3 1.56a.8.8 0 001.3.3 5.32 5.32 0 00.37-.46 40.93 40.93 0 005.82-11.49 4.18 4.18 0 00.16-.58A1.68 1.68 0 00109 217.62zm-5 11.81a.36.36 0 01-.38-.35c-.25-4.33 1.55-7.62 5.28-10.3A33 33 0 01104 229.43z"/><path fill="#070505" d="M114.56,165.68a5.51,5.51,0,0,0-2.58-1.43,12.12,12.12,0,0,0-10.69,2.31,3.63,3.63,0,0,0-1.2,1.56,1.09,1.09,0,0,0,.74,1.58,13.86,13.86,0,0,0,3.82.51,13.54,13.54,0,0,0,7.52-1.94L114.4,167A.75.75,0,0,0,114.56,165.68Zm-2,.85a11.16,11.16,0,0,1-3.16,1.63A15.54,15.54,0,0,1,105,169l-3-.38a.37.37,0,0,1-.17-.61,6.92,6.92,0,0,1,1-.91,12.11,12.11,0,0,1,7.18-1.84,5.82,5.82,0,0,1,2.47.68A.38.38,0,0,1,112.56,166.53Z"/><path fill="#090606" d="M123.65,173a8.61,8.61,0,0,0-2.29-1.19,11.82,11.82,0,0,0-4.29-.7,8.16,8.16,0,0,0-1,0,16.15,16.15,0,0,0-5.22,1.16c-.69.33-1.13.92-1,1.33a1.48,1.48,0,0,0,1.22.92c1.35.31,2.72.6,4.09.82a19.07,19.07,0,0,0,8.1-.17c.54-.14,1.36-.07,1.41-.82C124.72,173.72,124.13,173.29,123.65,173Zm-1.49,1c-.1.46-.93.25-1.43.29a23.25,23.25,0,0,1-8.4-1,13.78,13.78,0,0,1,6.87-.65,7.24,7.24,0,0,1,1.73.46C121.4,173.25,122.33,173.22,122.16,174Z"/><path fill="#080707" d="M134.05,160.21c-.16-.77-.3-1.56-.51-2.32a19.06,19.06,0,0,0-2.8-6.09,3.27,3.27,0,0,0-1.09-1.13.93.93,0,0,0-1.31.45,4,4,0,0,0-.26,1.56,16,16,0,0,0,3.2,10.2,7.53,7.53,0,0,0,.91,1c.47.46.83.44,1.38,0a1.52,1.52,0,0,0,.51-.83C134.58,162.11,134.15,161.16,134.05,160.21Zm-1.38,2.08c-.29.06-.39-.13-.5-.29a15.33,15.33,0,0,1-2.75-8.59c0-.2,0-.41.22-.49s.33.13.42.27A19.12,19.12,0,0,1,132.8,161C132.85,161.44,133,161.92,132.67,162.29Z"/><path fill="#070606" d="M152.8,174.07a.78.78,0,0,0-1-.64,1.61,1.61,0,0,0-.36.15,12,12,0,0,0-6.15,8.13,16.3,16.3,0,0,0-.19,3c0,.54.36.75.94.72s.71-.33,1.06-.5c1.35-.42,1.94-1.55,2.52-2.68.2-.34.4-.68.62-1a17.05,17.05,0,0,0,2.34-4.79A5.87,5.87,0,0,0,152.8,174.07Zm-2.46,4.31a14.08,14.08,0,0,1-3.88,5,9.22,9.22,0,0,1,4.64-7.88A3.86,3.86,0,0,1,150.34,178.38Z"/><path fill="#070505" d="M112.13,210.53a3.57,3.57,0,0,0-1-.15c-4.55,0-8.24,1.68-10.71,5.64a3.57,3.57,0,0,0-.34.71.65.65,0,0,0,.59.84c.65-.06,1.3-.17,2-.29a21.89,21.89,0,0,0,7.21-2.68,9.32,9.32,0,0,0,2.68-2.32,1.3,1.3,0,0,0,.33-.93A1,1,0,0,0,112.13,210.53Zm-3.49,3.23a18,18,0,0,1-6.35,2.17,9.56,9.56,0,0,1,8.82-4.12A6.67,6.67,0,0,1,108.64,213.76Z"/><path fill="#070606" d="M132.76,170.18a12.73,12.73,0,0,0-5-7.62,1.52,1.52,0,0,0-.91-.34.74.74,0,0,0-.78.48,2.59,2.59,0,0,0-.12.78,15.8,15.8,0,0,0,2.32,8.11,10.94,10.94,0,0,0,2.22,2.53,1.37,1.37,0,0,0,1.63.33,1.28,1.28,0,0,0,.72-1.29c0-.4,0-.8.06-1.42A9.59,9.59,0,0,0,132.76,170.18Zm-1.22,2.3c0,.19,0,.44-.28.43a.78.78,0,0,1-.5-.21,11.73,11.73,0,0,1-3.2-6.86c0-.5-.53-1.21.53-1.24a11.49,11.49,0,0,1,2.87,4.21A7.7,7.7,0,0,1,131.54,172.48Z"/><path fill="#080808" d="M124.64,205.88a7.08,7.08,0,0,0-3.28,2.79,14.53,14.53,0,0,0-2.07,7c0,.31,0,.64,0,1a1,1,0,0,0,.59,1,1,1,0,0,0,1.06-.37,19.09,19.09,0,0,0,2.56-3,16.06,16.06,0,0,0,2.39-7.48C126,205.86,125.44,205.53,124.64,205.88Zm-3.79,9.3a8.88,8.88,0,0,1,1.16-4.9,5.16,5.16,0,0,1,2.27-2.64C124.51,210,123.08,213.1,120.85,215.18Z"/><path fill="#090606" d="M132.25,195.74c-.05-.64-.59-.62-1-.74s-.76-.24-1.15-.32a7.67,7.67,0,0,0-6.76,1.36,33.32,33.32,0,0,0-2.5,2.26,3.16,3.16,0,0,0-.65,1,.61.61,0,0,0,.33.83,3.5,3.5,0,0,0,1.14.3,14.55,14.55,0,0,0,9-2.38,4.89,4.89,0,0,0,1.54-1.53A.88.88,0,0,0,132.25,195.74ZM130,197a12.53,12.53,0,0,1-7.92,2c2.56-2.64,5.07-4,8.42-2.71C130.53,196.65,130.26,196.83,130,197Z"/><path fill="#0c0b0b" d="M179.29,157.69a5,5,0,0,0-.79-.58,6.4,6.4,0,0,0-3.28-.53,11.91,11.91,0,0,0-6.41,1.89,6.77,6.77,0,0,0-1.11.82c-.44.43-.66,1.32-.44,1.62a1.48,1.48,0,0,0,1.25.51l.79,0a21.15,21.15,0,0,0,9.37-2.23,3.35,3.35,0,0,0,.52-.3A.84.84,0,0,0,179.29,157.69Zm-2.4.84s-.11.06-.17.09a17.12,17.12,0,0,1-7.48,1.43A9.18,9.18,0,0,1,175,157.9a17.44,17.44,0,0,1,1.77,0c.16,0,.26.09.24.25A.82.82,0,0,1,176.89,158.53Z"/><path fill="#090707" d="M178.87 146.28c-.26 0-.53 0-.87-.07a10.51 10.51 0 00-7.51 3.83 6.27 6.27 0 00-.93 1.52 1.27 1.27 0 001.43 1.87 13.29 13.29 0 008.19-4.49 3.78 3.78 0 00.61-1A1.17 1.17 0 00178.87 146.28zm-3.23 4a8.62 8.62 0 01-4.87 1.58c1.73-2.85 4.32-4 7.65-4.31A6.92 6.92 0 01175.64 150.27zM184.31 178.05a3.9 3.9 0 00-.35-.71 12.9 12.9 0 00-4.36-4.27 9.16 9.16 0 00-3.49-1.25c-1.34-.1-2 .64-1.74 1.69a4.73 4.73 0 001.7 2.62 14.19 14.19 0 006.78 3.1 4 4 0 00.59.05A.9.9 0 00184.31 178.05zm-2.91-.59a10.88 10.88 0 01-4.65-2.54 5 5 0 01-.84-1.09.69.69 0 01-.07-.57c.15-.26.44-.18.7-.11a10 10 0 015.43 3.78C182 177.34 181.86 177.57 181.4 177.46z"/><path fill="#0b0a0a" d="M143.26,186.5a4.24,4.24,0,0,0-.55-1.46.9.9,0,0,0-1.37-.21,4.15,4.15,0,0,0-.52.59A10.11,10.11,0,0,0,139,191a8.44,8.44,0,0,0,1.12,4.36c.53.94,1.25,1,2.06.13a2.44,2.44,0,0,0,.32-.49c.56-.46.64-1.16.9-1.77s-.18-1.34.16-2A20.29,20.29,0,0,0,143.26,186.5ZM141,194.27a7.49,7.49,0,0,1-.51-4.61,4.61,4.61,0,0,1,1.39-2.9C142.5,189.84,142.15,192.89,141,194.27Z"/><path fill="#0b0909" d="M160.26,182.9a.82.82,0,0,0-1-.64,5.87,5.87,0,0,0-1.05.56,10.2,10.2,0,0,0-3.57,3.92.67.67,0,0,0-.41.88c-.12.38-.23.76-.34,1.14a4,4,0,0,0-.25,1.75,1,1,0,0,0,1.44.91,4.12,4.12,0,0,0,1.68-1,10.84,10.84,0,0,0,3.55-6.92A2,2,0,0,0,160.26,182.9Zm-5.16,6.83c.1-2.12,1.13-3.78,3.53-5.51C158.14,187,157.07,188.64,155.1,189.73Z"/><path fill="#0a0707" d="M177.91,193.59a7.14,7.14,0,0,0-4.49-1.88,7,7,0,0,0-2.57.34,3.73,3.73,0,0,0-.86.46,1,1,0,0,0-.38.65.57.57,0,0,0,.49.55,1.51,1.51,0,0,1,.38.09c2.28,1,4.76,1.69,6.69,3.43.65.59,1.39.27,1.68-.61A2.69,2.69,0,0,0,177.91,193.59Zm-.62,2c-1.42-1-3.22-1.38-4.69-2.54a5.9,5.9,0,0,1,4.66,1.76,1,1,0,0,1,.21.52C177.49,195.38,177.29,195.56,177.29,195.56Z"/><path fill="#0a0808" d="M177 179.52a2.27 2.27 0 00-1 0 7.83 7.83 0 00-5.85 5.1c-.23.56-.49 1.14 0 1.66s1 .23 1.49.09c2.92-.79 4.57-3 5.9-5.47a3.14 3.14 0 00.16-.53A1 1 0 00177 179.52zm-5.66 5.54a6.68 6.68 0 014.43-4.1C175.12 182.93 173.85 184.15 171.35 185.06zM174.68 177.5a4.17 4.17 0 00-.71-.68 15.68 15.68 0 00-3.45-2 9.68 9.68 0 00-3.68-.75 1.21 1.21 0 00-1.28.73 1.42 1.42 0 00.26 1.49 5 5 0 001.56 1.22 12.54 12.54 0 005.38 1.27 4 4 0 001.57-.18A.74.74 0 00174.68 177.5zm-7.37-1.59a.42.42 0 01-.16-.32c0-.24.25-.24.43-.23a7.32 7.32 0 013.47 1.22 1.3 1.3 0 00.59.36.16.16 0 01.21.1l0 .26A6.8 6.8 0 01167.31 175.91zM166.7 179.31c-.58.31-1.12.7-1.67 1.06a6.67 6.67 0 00-3 4.91c-.22 1.44.67 2.14 2 1.61a2.67 2.67 0 001-.65 10.86 10.86 0 001.88-2.54 9.21 9.21 0 001.1-3.61A.83.83 0 00166.7 179.31zm-3.38 6.37a5 5 0 012.6-4.29c.07 0 .22 0 .32.05s.1.11.09.16A6.62 6.62 0 01163.32 185.68z"/><path fill="#0a0707" d="M184.39,185.3c-.28-.78-1-.74-1.67-.75h-.2a9.55,9.55,0,0,0-4,.88,6.07,6.07,0,0,0-2.46,1.94c-.65.87-.46,1.47.55,1.8a4.59,4.59,0,0,0,2.35.18,8.69,8.69,0,0,0,4.86-2.48C184.19,186.44,184.63,186,184.39,185.3Zm-1.95,1A7,7,0,0,1,178,188.1c-.18,0-.38,0-.46-.24a.46.46,0,0,1,.21-.51,7.68,7.68,0,0,1,4.82-1.5C182.5,186,182.51,186.21,182.44,186.28Z"/><path fill="#0d0b0b" d="M154.91,208.57a4.3,4.3,0,0,0-1.85-1.14,1.31,1.31,0,0,0-1.46.36,1.11,1.11,0,0,0,0,1.14,13.93,13.93,0,0,0,.7,1.64,21.41,21.41,0,0,0,2.38,3.43,1.09,1.09,0,0,0,1.19.53c.52-.15.64-.64.76-1.08a4.89,4.89,0,0,0-1.67-4.88Zm-1.41,1.58c-.1-.46.05-.64.52-.51a3.22,3.22,0,0,1,1.19,2.8A6.38,6.38,0,0,1,153.5,210.15Z"/><path fill="#0e0a0a" d="M165.15,206.71a6.12,6.12,0,0,0-4.91-2.23,6.86,6.86,0,0,0-2.16.24.76.76,0,0,0-.36,1.27,8,8,0,0,0,6.94,2.2A.82.82,0,0,0,165.15,206.71Zm-5.1-.81a3.09,3.09,0,0,1,3.14.9A3.81,3.81,0,0,1,160.05,205.9Z"/><path fill="#0b0909" d="M158.72,198.46a1,1,0,0,0-.35-1.38A11.84,11.84,0,0,0,154,195.4a4.56,4.56,0,0,0-1.38,0,1.6,1.6,0,0,0-1.05,2.44,3.34,3.34,0,0,0,2.69,1.44,20.84,20.84,0,0,0,2.37,0C157.31,199,158.17,199.16,158.72,198.46Zm-2.58-.57a3.67,3.67,0,0,1-3-.28.67.67,0,0,1-.43-.78c.08-.31.39-.3.63-.29a6.22,6.22,0,0,1,3.09,1C156.29,197.7,156.24,197.85,156.14,197.89Z"/><path fill="#100c0c" d="M164.7,177.17a9.56,9.56,0,0,0-4.72.26,4.78,4.78,0,0,0-1.84,1.14,1.23,1.23,0,0,0-.24,1.3,1,1,0,0,0,.89.7c.39.05.79.07,1.23.1a9.76,9.76,0,0,0,5.1-1.91.89.89,0,0,0,.41-.86A.87.87,0,0,0,164.7,177.17Zm-5.12,2.08c.77-1,1.83-.84,2.88-1C161.75,179.14,161.28,179.3,159.58,179.25Z"/><path fill="#0a0707" d="M165.44,213.75a6.09,6.09,0,0,0-5-3.05.82.82,0,0,0-.75,1.12,6.05,6.05,0,0,0,.85,1.56,12.55,12.55,0,0,0,3.36,2.74,1.61,1.61,0,0,0,.51.17,1.38,1.38,0,0,0,1-.64A2,2,0,0,0,165.44,213.75Zm-1.53.76a4.82,4.82,0,0,1-2.44-2,.45.45,0,0,1,.57-.05,3.49,3.49,0,0,1,2,1.63A.33.33,0,0,1,163.91,214.51Z"/><path fill="#060303" d="M418.75,92.29l-21.9.65a7,7,0,0,1-.79,0c-.37,0-.66-.27-.62-.64a.69.69,0,0,1,.68-.61c.46,0,.93,0,1.39,0L415,91.05l21.7-.68,3.78-.15c.33,0,.67,0,1,0,.49,0,.82.33.79.69s-.33.56-.66.62a11.69,11.69,0,0,1-1.19.08l-16.72.5-5,.17Z"/><path fill="#050404" d="M396.94,79.73a6.73,6.73,0,0,0,3.55-.78l1.47-.59a.57.57,0,0,1,.82.29.52.52,0,0,1-.24.68,14.45,14.45,0,0,1-1.4.75,19,19,0,0,1-4.22,1.19c.1,1.59.21,3.11.29,4.63a4.67,4.67,0,0,1-.09,1.18.66.66,0,0,1-.44.37.75.75,0,0,1-.54-.18,2.06,2.06,0,0,1-.51-1.26,29.69,29.69,0,0,1-.55-7.34,46,46,0,0,0,0-5,14.06,14.06,0,0,1,0-1.59c0-.8.07-.83,1.17-.93a.65.65,0,0,0,.51-.23c.12-.16.22-.33.34-.5,1.55-2.21,4.3-2.58,6.9-.89a2.33,2.33,0,0,1,1.19,2,.6.6,0,0,1-.41.62.55.55,0,0,1-.69-.23A3.06,3.06,0,0,0,401.54,70a2.94,2.94,0,0,0-3.31,1.25,7.44,7.44,0,0,0-1,2A10.76,10.76,0,0,0,396.94,79.73Z"/><path fill="#070505" d="M424,76.65l3.6-1c.25-.07.5-.18.75-.25.72-.22,1.12-.12,1.17.26.08.62-.41.81-.82,1-.82.27-1.65.48-2.48.7-2.2.59-2.36.83-2,3s.43,2.3,2.68,2a22.9,22.9,0,0,0,4.11-.68,1.94,1.94,0,0,1,.59,0c.3,0,.5.48.37.77a1.37,1.37,0,0,1-1.12.73c-1.76.26-3.54.52-5.32.67a2,2,0,0,1-2.27-1.52,6.56,6.56,0,0,1-.4-1.74,54.27,54.27,0,0,1-.15-8.74,7,7,0,0,1,.21-1.37,2.52,2.52,0,0,1,2-2c.78-.14,1.56-.29,2.34-.4a.73.73,0,0,1,.72.25c.08.11.22.24.2.33s-.14.45-.27.48c-.7.19-1.42.29-2.12.46-1.38.33-1.7.61-1.78,2C423.93,73.18,424,74.77,424,76.65Z"/><path fill="#080606" d="M438.44,83.22c-.47-.09-1.32-.23-2.16-.42a.55.55,0,0,1-.37-.63.52.52,0,0,1,.51-.5,9.46,9.46,0,0,1,1.19,0c.46,0,.92.15,1.38.17a2.24,2.24,0,0,0,2.42-1.35,2.9,2.9,0,0,0-1.12-3.33,5.05,5.05,0,0,0-2.46-.68,17.73,17.73,0,0,1-1.79-.09,2.38,2.38,0,0,1-2.12-2.27,4.07,4.07,0,0,1,.15-1.77,7,7,0,0,1,3.17-3.93,3.16,3.16,0,0,1,2.1-.4,1.86,1.86,0,0,1,1.59,1.55.7.7,0,0,1-.42.81.46.46,0,0,1-.64-.26c-.18-.34-.27-.77-.74-.85a1.78,1.78,0,0,0-1.32.3,5.57,5.57,0,0,0-2.56,3.64,1.42,1.42,0,0,0,1.42,1.89c.59.07,1.19.09,1.79.12a5.33,5.33,0,0,1,2.28.63,4.28,4.28,0,0,1,1.85,5.32C442,82.57,440.62,83.31,438.44,83.22Z"/><path fill="#0b0b0b" d="M418.85,84.07a6.08,6.08,0,0,0,2.35-.31,1.86,1.86,0,0,1,.78-.08c.18,0,.4.12.4.36s0,.45-.12.54a2.8,2.8,0,0,1-1,.59,9.84,9.84,0,0,1-4.15.1,1.86,1.86,0,0,1-1.55-1.38,12.87,12.87,0,0,1-.39-1.74c-.49-3.43-.51-6.89-.67-10.34a6.13,6.13,0,0,1,.22-2.17.63.63,0,0,1,.73-.51.62.62,0,0,1,.55.71c-.44,3.06.06,6.09.21,9.13a28.3,28.3,0,0,0,.4,3.56c.24,1.4.41,1.48,1.85,1.54Z"/><path fill="#0c0c0c" d="M408,71.19c0-.89-.12-1.43.14-1.93a.6.6,0,0,1,.66-.32c.24,0,.32.21.41.37a.85.85,0,0,1,.12.38c.24,3.82.47,7.64.73,11.46.08,1.18.25,2.36.35,3.54a.49.49,0,0,1-.41.58.62.62,0,0,1-.68-.28,4.76,4.76,0,0,1-.49-2.1c-.09-1.39-.19-2.77-.29-4.16C408.36,76.1,408.38,73.45,408,71.19Z"/><path fill="#0a0808" d="M478.61,122.94v-3.39a7,7,0,0,1,.05-.79c.4-2.79,1-2.78,3.06-3.17.84-.16,1.69-.3,2.54-.4a.52.52,0,0,1,.59.43.6.6,0,0,1-.31.66,4.84,4.84,0,0,1-1.72.47c-2.85.47-2.76.13-2.91,3.16-.14,2.57-.36,2.19,2.19,2,.26,0,.52-.09.79-.1a.7.7,0,0,1,.8.43c.11.29-.23.69-.69.8a8.42,8.42,0,0,1-1,.14c-2.68.22-2.13.38-2.14,2.51a7,7,0,0,0,.06.79c.08.72.36.9,1.08.62s1.45-.66,2.18-1a.62.62,0,0,1,.83.33.54.54,0,0,1-.17.71A8.59,8.59,0,0,1,480,128.7a1,1,0,0,1-1.22-.8,5.29,5.29,0,0,1-.21-1.37c0-1.19,0-2.39,0-3.59Z"/><path fill="#0b0909" d="M472.2,122.84c.9-.15,1.55-.27,2.21-.36a2,2,0,0,1,.78,0,.66.66,0,0,1,.36.42.63.63,0,0,1-.19.51,4.25,4.25,0,0,1-2.09.53c-.82.06-1.11,0-1,1.25,0,.79.11,1.59.14,2.38a2.67,2.67,0,0,1-.09.79.53.53,0,0,1-.58.43.69.69,0,0,1-.63-.41,1.57,1.57,0,0,1-.1-.58c-.13-2.92-.27-5.83-.37-8.75-.05-1.17.35-1.77,1.47-2,1.42-.31,2.87-.47,4.31-.69a1.35,1.35,0,0,1,.4,0,.6.6,0,0,1,.54.5.52.52,0,0,1-.38.61c-.65.15-1.3.25-2,.35s-1.32.1-2,.23a1.19,1.19,0,0,0-1.08,1.41C472,120.54,472.1,121.58,472.2,122.84Z"/><path fill="#0c0909" d="M460.75,122c.09,1.26.18,2.78.31,4.3.09,1.08.15,1.12,1.18,1.17.66,0,1.32,0,2,.11a4,4,0,0,1,1,.23.55.55,0,0,1,.35.64.66.66,0,0,1-.53.52,1.26,1.26,0,0,1-.39,0l-3.37-.24a1.35,1.35,0,0,1-1.36-1.21,13.17,13.17,0,0,1-.28-2.16c-.07-2.32-.09-4.64-.12-7a1.11,1.11,0,0,1,.25-.93.7.7,0,0,1,.49-.24.58.58,0,0,1,.42.32,3.9,3.9,0,0,1,.11,1C460.76,119.62,460.75,120.68,460.75,122Z"/><path fill="#131212" d="M468.29,123.64c0,1.46,0,2.92,0,4.38a5.22,5.22,0,0,1,0,.79.52.52,0,0,1-.55.46.64.64,0,0,1-.62-.41,1.62,1.62,0,0,1-.11-.58q-.17-4.77-.3-9.54a1.24,1.24,0,0,1,.22-.94,1,1,0,0,1,.5-.23.39.39,0,0,1,.43.32,2.27,2.27,0,0,1,.08.59c.08,1.72.16,3.44.23,5.16Z"/><path fill="#0f0900" d="M466.24,99.4a2.68,2.68,0,0,1,.28.45.43.43,0,0,1-.15.53,6.61,6.61,0,0,1-.68.39,16.1,16.1,0,0,0-5.75,4.5,2.61,2.61,0,0,1-1,1,.61.61,0,0,1-.53-.06.79.79,0,0,1-.19-.52,1,1,0,0,1,.2-.55,15.85,15.85,0,0,1,6.9-5.51A4.65,4.65,0,0,1,466.24,99.4Z"/><path fill="#050404" d="M363.71 58.1a1.72 1.72 0 01-.29 1.11.38.38 0 01-.33.12.35.35 0 01-.24-.25 12.46 12.46 0 01.11-1.36.32.32 0 01.43-.25.53.53 0 01.26.25A1 1 0 01363.71 58.1zM362.32 76.7l1.19.26a.2.2 0 01.13.31c-.05.1-.15.27-.22.26-.38 0-.76-.12-1.14-.19s-.54-.12-.41-.45C361.91 76.77 362.19 76.75 362.32 76.7zM364.2 66.16c-.05.3 0 .62-.36.79a.38.38 0 01-.45 0c-.05-.45.25-.79.37-1.18C364.14 65.64 364.32 65.74 364.2 66.16zM360.93 70.83a2.65 2.65 0 01-.52-.18.4.4 0 01-.14-.32c0-.08.14-.22.22-.22a1.2 1.2 0 011.19.42C361.46 70.7 361.16 70.68 360.93 70.83z"/><path fill="#050404" d="M364.2 66.16l-.44-.43a.61.61 0 01.29-.64.45.45 0 01.33-.06.48.48 0 01.17.31A.81.81 0 01364.2 66.16zM358.56 60.13a.67.67 0 01-.48-.57.65.65 0 01.15-.52c.15-.11.35 0 .46.2s.19.34.28.51l-.05.14a.7.7 0 01-.22.2z"/><path fill="#050404" d="M359 59.75a1.41 1.41 0 01.28.26.5.5 0 01.08.36c-.13.22-.34.14-.51 0a1.37 1.37 0 01-.26-.28.21.21 0 00.21-.09l.1-.08A.22.22 0 00359 59.75zM364.58 84.07c-.18.21-.33.1-.39-.09a.66.66 0 01.27-.8C364.8 83.44 364.74 83.74 364.58 84.07z"/><path fill="#050404" d="M364.58 84.07l-.12-.89c.14-.23.36-.43.48 0S365.05 83.9 364.58 84.07zM359.34 66.12c.24.07.33.23.07.34a.51.51 0 01-.75-.38A.45.45 0 01359.34 66.12zM365.31 75.67c0 .32-.17.52-.47.46s-.34-.35-.2-.61a1.32 1.32 0 01.24-.29C365.14 75.27 365.17 75.53 365.31 75.67zM365 74.92c0-.39.29-.61.62-.36s.1.56-.17.77C365.14 75.33 365.11 75.06 365 74.92zM358.7 74c.2 0 .3.11.3.32a.39.39 0 01-.07.51.93.93 0 01-.73-.75A.44.44 0 01358.7 74zM360.93 70.83c.18-.27.49-.23.75-.3C361.66 71.21 361.23 70.85 360.93 70.83z"/><path fill="#050404" d="M365 74.92l.45.41a.58.58 0 01-.11.34l-.43-.44A.42.42 0 01365 74.92zM358.93 74.85l.07-.51a2 2 0 01.39.31.36.36 0 01-.06.31C359.18 75.09 359 75 358.93 74.85zM359.34 66.12l-.68 0c-.18-.35-.05-.48.29-.36C359.1 65.79 359.21 66 359.34 66.12zM358.7 74l-.5.08c-.06-.15-.21-.33 0-.42S358.59 73.83 358.7 74zM363.39 66.91l.45 0c-.1.14-.24.4-.31.38S363.3 67.1 363.39 66.91zM376.88 84.25l.95.33s0 .11 0 .17-.05.13-.1.15a1.91 1.91 0 01-1.48-.18s0-.11 0-.16.05-.13.1-.15zM381.79 66c-.05.12-.08.25-.13.36s-.09.11-.13.11-.16 0-.17-.08a2.66 2.66 0 01-.18-1.67s.11-.07.16-.08.16 0 .19 0C381.86 65 381.73 65.51 381.79 66zM371.61 87.65a7.29 7.29 0 01.85.35.36.36 0 01.14.32.44.44 0 01-.3.2.9.9 0 01-.9-.21.5.5 0 01-.09-.35C371.33 87.86 371.47 87.79 371.61 87.65zM377.24 70.44c-.09.07-.19.19-.29.19a.67.67 0 01-.67-.32.63.63 0 010-.36.2.2 0 01.15-.11 1 1 0 01.84.41S377.25 70.37 377.24 70.44zM380.93 72.49a1.26 1.26 0 01.21-.91 1.51 1.51 0 01.44-.28c0 .11.14.22.14.33a1.53 1.53 0 01-.45 1.23A.72.72 0 01380.93 72.49zM376.48 76.4a1.28 1.28 0 01-.94-.65.29.29 0 01.33-.46 1.8 1.8 0 011.08.79C376.88 76.31 376.65 76.31 376.48 76.4zM377.49 81.7a5.19 5.19 0 01-.56 0c-.05 0-.15-.09-.14-.11s.07-.28.15-.31a1.46 1.46 0 011.16 0C378.1 81.77 377.88 81.87 377.49 81.7z"/><path fill="#050404" d="M377.49 81.7l.61-.38a2.87 2.87 0 01.51.21.42.42 0 01.15.32c0 .24-.23.25-.41.24A1.23 1.23 0 01377.49 81.7zM382.61 78.49c.22.17.36.41.18.64s-.44.16-.65 0l-.28-.25a.63.63 0 01.23-.28.62.62 0 01.34-.13z"/><path fill="#050404" d="M381.86 78.86c-.28-.18-.24-.42-.06-.63s.35-.09.52 0a2.15 2.15 0 01.29.25l-.15.13a.52.52 0 00-.35.16A.33.33 0 01381.86 78.86zM380.93 72.49l.34.37c0 .19-.15.36-.31.27S380.81 72.71 380.93 72.49zM376.48 76.4l.47-.32c.22.09.29.26.07.37S376.66 76.42 376.48 76.4zM350.12 74.6a3.07 3.07 0 01-.64 1.35.43.43 0 01-.35.1.44.44 0 01-.19-.31 1.78 1.78 0 01.6-1.38.4.4 0 01.35-.08C350 74.31 350 74.47 350.12 74.6zM357.77 86.05c0 .07 0 .33-.06.59s-.12.24-.28.15a.78.78 0 01-.3-.22 1.58 1.58 0 01-.05-1.15.62.62 0 01.33-.43c.42-.12.31.26.36.48A5.24 5.24 0 01357.77 86.05zM354.13 80.4c-.52-.2-1.17-.16-1.4-.83a.18.18 0 010-.16c.72-.33 1.18.18 1.7.52 0 0 0 .11.06.18A1.33 1.33 0 01354.13 80.4zM353 83.3c.95.56 1.26.92.93 1-.57.21-.9-.22-1.26-.54 0 0 0-.12-.05-.18S352.83 83.41 353 83.3zM348.73 78.3a.54.54 0 01-.49-.51c0-.06.19-.17.3-.17.33 0 .46.18.42.47C349 78.17 348.81 78.24 348.73 78.3z"/><path fill="#050404" d="M354.13 80.4l.38-.29C354.59 80.48 354.4 80.49 354.13 80.4zM353 83.3l-.38.33C352.47 83.24 352.6 83.14 353 83.3zM373.59 95.59c-.58 0-.74-.21-.79-.48a.57.57 0 01.34-.65 4.43 4.43 0 011-.23c1.24-.21 2.48-.45 3.73-.61A4.14 4.14 0 00380.69 92 18.81 18.81 0 01382 90.54a1.76 1.76 0 01.68-.38c.28-.08.49.1.66.33a.42.42 0 010 .55c-.84.94-1.68 1.87-2.56 2.77a2.84 2.84 0 01-1.56.85C377.27 95 375.3 95.31 373.59 95.59zM353.87 93c.39.37.87.25 1.31.22a10.3 10.3 0 013.32.3 2 2 0 011.12.76c.09.17.17.39 0 .55a1.64 1.64 0 01-.48.31.5.5 0 01-.38 0 7.63 7.63 0 00-4-.69 4.1 4.1 0 01-2.91-1 1.63 1.63 0 01-.39-.44.63.63 0 010-.74.5.5 0 01.71-.09C352.7 92.4 353.16 92.93 353.87 93zM368.92 93.06c-.09.13-.18.4-.3.42a22.77 22.77 0 00-3.55 1 .52.52 0 01-.37 0 1.1 1.1 0 01-.34-.43.35.35 0 01.09-.34c1.23-.73 2.46-1.48 4-1.19C368.72 92.51 368.86 92.74 368.92 93.06z"/><path fill="#040303" d="M216.15,98.47c1.55-.21,2.91-.45,4.29-.58a31.53,31.53,0,0,1,9.29.76c.44.09,1,.1,1.26.51a1.08,1.08,0,0,1,.18.53c0,.24-.21.33-.39.37a4.41,4.41,0,0,1-1.77-.19,33.51,33.51,0,0,0-8.3-.68,23.28,23.28,0,0,0-3.54.55c-.92.19-1,.4-.89,1.42a50.23,50.23,0,0,0,2.54,11,3.91,3.91,0,0,1,.2,1,.39.39,0,0,1-.3.44.7.7,0,0,1-.56-.08,2.42,2.42,0,0,1-.53-.81c-.39-1.06-.79-2.11-1.08-3.2a47.82,47.82,0,0,1-1.73-8.68c-.5-.32-.88-.06-1.21.09a25.37,25.37,0,0,0-8.51,5.77,38,38,0,0,0-4.55,5.26,1.21,1.21,0,0,1-.43.38.5.5,0,0,1-.38,0,.42.42,0,0,1-.32-.44,1.57,1.57,0,0,1,.12-.57,5,5,0,0,1,.52-.85c3.59-4.71,7.72-8.75,13.38-10.92.31-.12.61-.27.91-.41a1.7,1.7,0,0,0,.21-.18c0-.67,0-1.39,0-2.11a37.37,37.37,0,0,1,1.73-12.16,1.42,1.42,0,0,1,.17-.35.5.5,0,0,1,.67-.24.57.57,0,0,1,.3.44,13.1,13.1,0,0,1-.26,1.76A50.76,50.76,0,0,0,216,94,23.13,23.13,0,0,0,216.15,98.47Z"/><path fill="#040200" d="M345.32 272.1a1 1 0 01-.2.72 11.2 11.2 0 01-1.63 1.74c-3.62 3.33-7.09 6.81-10.37 10.48a30.11 30.11 0 00-4.91 7 3.36 3.36 0 01-.55.82.87.87 0 01-.92.22.76.76 0 01-.55-.74 1.21 1.21 0 01.46-1.24 2.14 2.14 0 00.76-.9 34.39 34.39 0 015.71-7.64c3.12-3.35 6.39-6.57 9.71-9.72a14.3 14.3 0 011.56-1.23C344.69 271.39 345.28 271.73 345.32 272.1zM369.74 265.72a12.32 12.32 0 01.07-1.29.61.61 0 01.52-.53.64.64 0 01.78.45 9.12 9.12 0 01.21 1.57 64.09 64.09 0 001 7.68 86.29 86.29 0 004.75 14.53c.27.68.52 1.36.73 2.06a.64.64 0 01-.38.82.66.66 0 01-.87-.25 9 9 0 01-.76-1.4 90.77 90.77 0 01-5.08-15.26A73.51 73.51 0 01369.74 265.72z"/><path fill="#070400" d="M335.94 275.86a.63.63 0 01-.55-.74 3.1 3.1 0 01.44-.87 40.54 40.54 0 006.37-12.53 5.78 5.78 0 01.47-1.08.73.73 0 01.88-.28.7.7 0 01.55.74 7.25 7.25 0 01-.4 1.73 78.53 78.53 0 01-3.31 7.45 32.18 32.18 0 01-3.5 5.07C336.63 275.66 336.34 276 335.94 275.86zM371.58 285.15a.67.67 0 01.67.33c.42.83.77 1.68 1.21 2.5 1.32 2.44 2.67 4.87 4 7.31a10.3 10.3 0 01.61 1.25.65.65 0 01-.28.85.76.76 0 01-.92-.14 4.17 4.17 0 01-.63-.76 107.1 107.1 0 01-5-9.69 2.59 2.59 0 01-.22-.95A.73.73 0 01371.58 285.15z"/><path fill="#060606" d="M145.66,247.44q.18,8.17.35,16.33a11.86,11.86,0,0,1-.06,1.79.48.48,0,0,1-.59.39c-.17,0-.42-.17-.45-.31a6.18,6.18,0,0,1-.18-1.36q-.21-9.16-.41-18.32-.18-7.67-.35-15.34c0-.46,0-.93,0-1.39a.68.68,0,0,1,.57-.71c.38,0,.6.24.65.61a8.1,8.1,0,0,1,.06,1q.22,8.65.44,17.32Z"/><path fill="#100e0e" d="M138.06,276.21a3.26,3.26,0,0,1-1.74-.29.53.53,0,0,1-.24-.5.41.41,0,0,1,.38-.39,4.57,4.57,0,0,1,1-.06,9.44,9.44,0,0,0,8.06-3.55,2.86,2.86,0,0,1,.72-.67.65.65,0,0,1,.55.09c.13.1.28.37.24.49a4,4,0,0,1-.57,1A10.09,10.09,0,0,1,138.06,276.21Z"/><path fill="#0b0a0a" d="M283.1,214.51c-.21,2.76-1,5-3.09,6.64a3.72,3.72,0,0,1-1.74.89.86.86,0,0,1-1-.54.75.75,0,0,1,.28-.88,2.32,2.32,0,0,1,.51-.29c2.32-1.2,3.13-3.27,3.24-5.72,0-.46-.08-.92-.08-1.38a.79.79,0,0,1,.76-.76.72.72,0,0,1,.76.52C282.93,213.56,283,214.14,283.1,214.51Z"/><path fill="#0a0808" d="M272.75,198.82a9.69,9.69,0,0,0-1.39.1c-1.79.34-3.24,1.1-3.77,3-.22.78-.58,1-1.08.91s-.78-.65-.61-1.45a4.18,4.18,0,0,1,1.14-2.06,7.43,7.43,0,0,1,7.13-2,1.72,1.72,0,0,1,.68.36.6.6,0,0,1,.23.7.7.7,0,0,1-.55.52,4.15,4.15,0,0,1-.79,0C273.48,198.92,273.22,198.87,272.75,198.82Z"/><path fill="#452101" d="M196.09,265.54a.6.6,0,0,1-.8.4.6.6,0,1,1,.38-1.13A.61.61,0,0,1,196.09,265.54Z"/><path fill="#492901" d="M185,262.87a.63.63,0,0,1-.14,1.25.63.63,0,0,1-.54-.69A.69.69,0,0,1,185,262.87Z"/><path fill="#372301" d="M195.2,260.3a.66.66,0,0,1-.54-.7.59.59,0,0,1,.73-.47.58.58,0,0,1,.45.57A.64.64,0,0,1,195.2,260.3Z"/><path fill="#441f01" d="M180.88,262.8a.67.67,0,0,1,.57.67.57.57,0,0,1-.7.48.53.53,0,0,1-.48-.52A.65.65,0,0,1,180.88,262.8Z"/><path fill="#362601" d="M190.11,259.29c-.12.28-.28.56-.66.53a.59.59,0,1,1,.11-1.18A.59.59,0,0,1,190.11,259.29Z"/><path fill="#402101" d="M183.2,254.5a.61.61,0,0,1-1.21.17.64.64,0,0,1,.53-.69A.59.59,0,0,1,183.2,254.5Z"/><path fill="#3b2a01" d="M182.6,271a.62.62,0,0,1-.67-.53.58.58,0,0,1,.57-.64.56.56,0,0,1,.57.43A.6.6,0,0,1,182.6,271Z"/><path fill="#562b01" d="M189,268.42a.55.55,0,0,1,.46.55.57.57,0,0,1-.65.55.53.53,0,0,1-.47-.54A.62.62,0,0,1,189,268.42Z"/><path fill="#1f1100" d="M194.93,270.93a.58.58,0,0,1,0,1.16.58.58,0,1,1,0-1.16Z"/><path fill="#401c01" d="M184.31,259.59a.56.56,0,0,1-.48-.71.53.53,0,0,1,.54-.46.64.64,0,0,1,.62.64A.6.6,0,0,1,184.31,259.59Z"/><path fill="#1e0f00" d="M188.62,253.25a.58.58,0,0,1-.68.48.59.59,0,0,1-.46-.71.62.62,0,0,1,.58-.43C188.35,252.56,188.66,252.94,188.62,253.25Z"/><path fill="#0e0000" d="M194.51,252.77c.31.06.46.24.42.53a.48.48,0,0,1-1-.13C194,252.85,194.26,252.8,194.51,252.77Z"/><path fill="#200f00" d="M191.39,264.72c-.2,0-.33-.14-.33-.36s.29-.49.5-.38a.38.38,0,0,1-.17.74Z"/><path fill="#040303" d="M48.23,468.12c.18-.43.54-.43.73-.11a4,4,0,0,0,2.47,2.08.52.52,0,0,1,.15.93,4.92,4.92,0,0,1-.79.43c1.56,1.73,3.32,3.2,5,4.79s3.33,3.17,5.16,4.84c0-1.8-2.59-15.75-4.35-23.46-.5-.5-1.16,0-1.69-.23a.82.82,0,0,1-.39-.39.46.46,0,0,1,.33-.62,3.14,3.14,0,0,0,1.94-.84.38.38,0,0,1,.37,0c.58.46,1.27.25,1.91.36a.66.66,0,0,1,.61.66c0,.33-.26.43-.52.5a5.63,5.63,0,0,1-.59.05c-.56.12-.66.27-.55.82q1.41,7.23,2.84,14.45c.63,3.18,1.3,6.36,2,9.54a7.25,7.25,0,0,1,.17.78c0,.39.18.82-.24,1.09s-.87,0-1.21-.35c-.74-.66-1.48-1.34-2.2-2l-8.41-7.93c-.23-.22-.48-.42-.66-.57-.42,0-.37.27-.35.44.3,2.3.62,4.6.93,6.9.12.84.17,1.74,1.39,1.73.11,0,.3.28.31.44a.57.57,0,0,1-.28.46,6.23,6.23,0,0,1-2.92.45.73.73,0,0,1-.46-.32.43.43,0,0,1,.2-.66c.66-.22.67-.59.58-1.22-.39-2.49-.68-5-1-7.5-.11-.78-.24-1.56-.35-2.3-.64-.13-1.16-.21-1.66-.35-.33-.09-.3-.42.07-.85C46.62,469,47.75,468.81,48.23,468.12Z"/><path fill="#0a0a0a" d="M44.71 469.46a83.32 83.32 0 00.44 11.89c0 .33.13.65.18 1 .08.52.32.83.91.8a1.21 1.21 0 01.54.23.44.44 0 010 .67 1.31 1.31 0 01-.33.21 8.17 8.17 0 01-2.95.25.58.58 0 01-.38-.37c0-.16 0-.49.14-.52.82-.28.76-.86.66-1.56a62.29 62.29 0 01-.5-10.12c0-.47 0-.93 0-1.4s0-1.21-.81-1.34c-.1 0-.18-.18-.26-.28s0-.77.31-.77c.92 0 1.85 0 2.78 0a.59.59 0 01.36.13c.2.16.43.31.37.64a.48.48 0 01-.39.38C45.47 469.37 45.14 469.4 44.71 469.46zM48.23 468.12c0 .19 0 .5-.14.54a1.63 1.63 0 00-1 1.37c0 .05-.24.05-.37.07a2.63 2.63 0 000-.56c-.1-.59 0-1 .72-1C47.8 468.58 48 468.26 48.23 468.12z"/><polygon fill="#050404" points="358.87 59.96 358.77 60.04 358.75 59.92 358.87 59.96"/><path fill="#050404" d="M382.11,78.78c0-.26.18-.23.35-.16Z"/></svg>